<?xml version="1.0" encoding="UTF-8" standalone="no"?>
<!-- Created with Inkscape (http://www.inkscape.org/) -->

<svg
   xmlns:dc="http://purl.org/dc/elements/1.1/"
   xmlns:cc="http://creativecommons.org/ns#"
   xmlns:rdf="http://www.w3.org/1999/02/22-rdf-syntax-ns#"
   xmlns:svg="http://www.w3.org/2000/svg"
   xmlns="http://www.w3.org/2000/svg"
   xmlns:sodipodi="http://sodipodi.sourceforge.net/DTD/sodipodi-0.dtd"
   xmlns:inkscape="http://www.inkscape.org/namespaces/inkscape"
   width="744.09448819"
   height="1052.3622047"
   id="svg2"
   version="1.1"
   inkscape:version="0.48.4 r9939"
   sodipodi:docname="ButtonBoard.svg">
  <defs
     id="defs4">
    <symbol
       id="*Paper_Space0" />
    <symbol
       id="*Paper_Space" />
    <symbol
       id="*Model_Space" />
    <pattern
       y="0"
       x="0"
       width="8"
       patternUnits="userSpaceOnUse"
       id="Hatch"
       height="8">
      <path
         id="path2995"
         stroke-width="0.25"
         stroke="#000000"
         linecap="square"
         d="M8 4 l-4,4" />
      <path
         id="path2997"
         stroke-width="0.25"
         stroke="#000000"
         linecap="square"
         d="M6 2 l-4,4" />
      <path
         id="path2999"
         stroke-width="0.25"
         stroke="#000000"
         linecap="square"
         d="M4 0 l-4,4" />
    </pattern>
    <marker
       style="overflow:visible"
       refY="0.0"
       refX="0.0"
       orient="auto"
       id="DistanceX">
      <path
         id="path2992"
         style="stroke:#000000; stroke-width:0.5"
         d="M 3,-3 L -3,3 M 0,-5 L  0,5" />
    </marker>
  </defs>
  <sodipodi:namedview
     id="base"
     pagecolor="#ffffff"
     bordercolor="#666666"
     borderopacity="1.0"
     inkscape:pageopacity="0.0"
     inkscape:pageshadow="2"
     inkscape:zoom="1.4"
     inkscape:cx="150.00462"
     inkscape:cy="125.81837"
     inkscape:document-units="px"
     inkscape:current-layer="layer1"
     showgrid="false"
     inkscape:window-width="1024"
     inkscape:window-height="744"
     inkscape:window-x="0"
     inkscape:window-y="24"
     inkscape:window-maximized="1" />
  <metadata
     id="metadata7">
    <rdf:RDF>
      <cc:Work
         rdf:about="">
        <dc:format>image/svg+xml</dc:format>
        <dc:type
           rdf:resource="http://purl.org/dc/dcmitype/StillImage" />
        <dc:title></dc:title>
      </cc:Work>
    </rdf:RDF>
  </metadata>
  <g
     inkscape:label="Layer 1"
     inkscape:groupmode="layer"
     id="layer1">
    <path
       inkscape:connector-curvature="0"
       d="m 298.70079,869.52749 -290.551184,0 C 3.882481,869.52749 -1.9999374e-6,873.40997 0,877.6771 l 0,54.92126 c 3.0000626e-6,4.26712 3.882484,8.1496 8.149606,8.1496 l 7.086614,0 c 5.286464,0.002 10.539716,2.17908 14.27722,5.91777 3.737504,3.73868 5.913267,8.99262 5.913267,14.27908 0,5.28646 -2.175763,10.5404 -5.913267,14.27908 -3.737504,3.73869 -8.990756,5.91611 -14.27722,5.91777 l -7.086614,0 c -4.267125,0 -8.1496079999374,3.88248 -8.149606,8.14961 l 0,54.92123 c -1.7999937e-5,4.2672 3.882471,8.1497 8.149606,8.1497 l 290.551184,0 c 4.26713,0 8.14962,-3.8825 8.1496,-8.1497 l 0,-47.83462 c 0,-4.26712 -3.88248,-8.1496 -8.1496,-8.1496 l -7.08662,0 c -7.14279,0 -14.2416,-2.94042 -19.29232,-7.99114 -5.05072,-5.05072 -7.99113,-12.14953 -7.99113,-19.29233 0,-7.14279 2.94041,-14.2416 7.99113,-19.29232 5.05072,-5.05072 12.14953,-7.99114 19.29232,-7.99114 l 7.08662,0 c 4.26712,0 8.1496,-3.88249 8.1496,-8.14961 l 0,-47.83464 c 0,-4.26712 -3.88248,-8.14961 -8.1496,-8.14961 z"
       style="fill:#000000;fill-opacity:1;stroke:#000000;stroke-width:0;stroke-linecap:round;stroke-miterlimit:4;stroke-dasharray:none"
       id="path3060"
       sodipodi:nodetypes="ccccccsssccccccccccsssccccc" />
  </g>
</svg>
