<?xml version="1.0" encoding="utf-8"?>
<!-- Generator: Adobe Illustrator 18.1.0, SVG Export Plug-In . SVG Version: 6.00 Build 0)  -->
<!DOCTYPE svg PUBLIC "-//W3C//DTD SVG 1.1//EN" "http://www.w3.org/Graphics/SVG/1.1/DTD/svg11.dtd">
<svg version="1.1" id="Layer_1" xmlns="http://www.w3.org/2000/svg" xmlns:xlink="http://www.w3.org/1999/xlink" x="0px" y="0px"
	 viewBox="0 0 595.3 841.9" enable-background="new 0 0 595.3 841.9" xml:space="preserve">
<path fill="#DCDDDE" d="M72.2,145.5l-7.4,0c-2.3,0-4.1-1.8-4.1-4.1l0-7.4c0-2.3,1.8-4.1,4.1-4.1l7.4,0c2.3,0,4.1,1.8,4.1,4.1l0,7.4
	C76.3,143.7,74.5,145.5,72.2,145.5z"/>
<path fill="#07B4C8" d="M52,145.6l-7.4,0c-2.3,0-4.1-1.8-4.1-4.1l0-7.4c0-2.3,1.8-4.1,4.1-4.1l7.4,0c2.3,0,4.1,1.8,4.1,4.1l0,7.4
	C56,143.8,54.2,145.6,52,145.6z"/>
<path fill="#DCDDDE" d="M72.4,165.7l-7.4,0c-2.3,0-4.1-1.8-4.1-4.1l0-7.4c0-2.3,1.8-4.1,4.1-4.1l7.4,0c2.3,0,4.1,1.8,4.1,4.1l0,7.4
	C76.4,163.9,74.6,165.7,72.4,165.7z"/>
<path fill="#DCDDDE" d="M52.1,165.8l-7.4,0c-2.3,0-4.1-1.8-4.1-4.1l0-7.4c0-2.3,1.8-4.1,4.1-4.1l7.4,0c2.3,0,4.1,1.8,4.1,4.1l0,7.4
	C56.2,164,54.3,165.8,52.1,165.8z"/>
<path fill="#DCDDDE" d="M72.5,186.4l-7.4,0c-2.3,0-4.1-1.8-4.1-4.1l0-7.4c0-2.3,1.8-4.1,4.1-4.1l7.4,0c2.3,0,4.1,1.8,4.1,4.1l0,7.4
	C76.5,184.5,74.7,186.4,72.5,186.4z"/>
<path fill="#DCDDDE" d="M52.2,186.5l-7.4,0c-2.3,0-4.1-1.8-4.1-4.1l0-7.4c0-2.3,1.8-4.1,4.1-4.1l7.4,0c2.3,0,4.1,1.8,4.1,4.1l0,7.4
	C56.3,184.6,54.4,186.5,52.2,186.5z"/>
<path fill="#DCDDDE" d="M126.2,145.4l-7.4,0c-2.3,0-4.1-1.8-4.1-4.1l0-7.4c0-2.3,1.8-4.1,4.1-4.1l7.4,0c2.3,0,4.1,1.8,4.1,4.1l0,7.4
	C130.3,143.5,128.5,145.4,126.2,145.4z"/>
<path fill="#07B4C8" d="M106,145.5l-7.4,0c-2.3,0-4.1-1.8-4.1-4.1l0-7.4c0-2.3,1.8-4.1,4.1-4.1l7.4,0c2.3,0,4.1,1.8,4.1,4.1l0,7.4
	C110,143.6,108.2,145.5,106,145.5z"/>
<path fill="#DCDDDE" d="M126.4,165.6l-7.4,0c-2.3,0-4.1-1.8-4.1-4.1l0-7.4c0-2.3,1.8-4.1,4.1-4.1l7.4,0c2.3,0,4.1,1.8,4.1,4.1l0,7.4
	C130.4,163.7,128.6,165.6,126.4,165.6z"/>
<path fill="#07B4C8" d="M106.1,165.7l-7.4,0c-2.3,0-4.1-1.8-4.1-4.1l0-7.4c0-2.3,1.8-4.1,4.1-4.1l7.4,0c2.3,0,4.1,1.8,4.1,4.1l0,7.4
	C110.2,163.8,108.3,165.7,106.1,165.7z"/>
<path fill="#DCDDDE" d="M126.5,186.2l-7.4,0c-2.3,0-4.1-1.8-4.1-4.1l0-7.4c0-2.3,1.8-4.1,4.1-4.1l7.4,0c2.3,0,4.1,1.8,4.1,4.1l0,7.4
	C130.6,184.4,128.7,186.2,126.5,186.2z"/>
<path fill="#DCDDDE" d="M106.2,186.3l-7.4,0c-2.3,0-4.1-1.8-4.1-4.1l0-7.4c0-2.3,1.8-4.1,4.1-4.1l7.4,0c2.3,0,4.1,1.8,4.1,4.1l0,7.4
	C110.3,184.5,108.4,186.3,106.2,186.3z"/>
<path fill="#07B4C8" d="M180.2,145.2l-7.4,0c-2.3,0-4.1-1.8-4.1-4.1l0-7.4c0-2.3,1.8-4.1,4.1-4.1l7.4,0c2.3,0,4.1,1.8,4.1,4.1l0,7.4
	C184.3,143.4,182.5,145.2,180.2,145.2z"/>
<path fill="#07B4C8" d="M160,145.3l-7.4,0c-2.3,0-4.1-1.8-4.1-4.1l0-7.4c0-2.3,1.8-4.1,4.1-4.1l7.4,0c2.3,0,4.1,1.8,4.1,4.1l0,7.4
	C164,143.5,162.2,145.3,160,145.3z"/>
<path fill="#DCDDDE" d="M180.4,165.4l-7.4,0c-2.3,0-4.1-1.8-4.1-4.1l0-7.4c0-2.3,1.8-4.1,4.1-4.1l7.4,0c2.3,0,4.1,1.8,4.1,4.1l0,7.4
	C184.4,163.6,182.6,165.4,180.4,165.4z"/>
<path fill="#DCDDDE" d="M160.1,165.5l-7.4,0c-2.3,0-4.1-1.8-4.1-4.1l0-7.4c0-2.3,1.8-4.1,4.1-4.1l7.4,0c2.3,0,4.1,1.8,4.1,4.1l0,7.4
	C164.2,163.7,162.3,165.5,160.1,165.5z"/>
<path fill="#DCDDDE" d="M180.5,186.1l-7.4,0c-2.3,0-4.1-1.8-4.1-4.1l0-7.4c0-2.3,1.8-4.1,4.1-4.1l7.4,0c2.3,0,4.1,1.8,4.1,4.1l0,7.4
	C184.6,184.2,182.7,186,180.5,186.1z"/>
<path fill="#DCDDDE" d="M160.2,186.2l-7.4,0c-2.3,0-4.1-1.8-4.1-4.1l0-7.4c0-2.3,1.8-4.1,4.1-4.1l7.4,0c2.3,0,4.1,1.8,4.1,4.1l0,7.4
	C164.3,184.3,162.5,186.2,160.2,186.2z"/>
<path fill="#07B4C8" d="M234.2,145l-7.4,0c-2.3,0-4.1-1.8-4.1-4.1l0-7.4c0-2.3,1.8-4.1,4.1-4.1l7.4,0c2.3,0,4.1,1.8,4.1,4.1l0,7.4
	C238.3,143.2,236.5,145,234.2,145z"/>
<path fill="#07B4C8" d="M214,145.2l-7.4,0c-2.3,0-4.1-1.8-4.1-4.1l0-7.4c0-2.3,1.8-4.1,4.1-4.1l7.4,0c2.3,0,4.1,1.8,4.1,4.1l0,7.4
	C218.1,143.3,216.2,145.1,214,145.2z"/>
<path fill="#07B4C8" d="M234.4,165.3l-7.4,0c-2.3,0-4.1-1.8-4.1-4.1l0-7.4c0-2.3,1.8-4.1,4.1-4.1l7.4,0c2.3,0,4.1,1.8,4.1,4.1l0,7.4
	C238.4,163.4,236.6,165.2,234.4,165.3z"/>
<path fill="#DCDDDE" d="M214.1,165.4l-7.4,0c-2.3,0-4.1-1.8-4.1-4.1l0-7.4c0-2.3,1.8-4.1,4.1-4.1l7.4,0c2.3,0,4.1,1.8,4.1,4.1l0,7.4
	C218.2,163.5,216.3,165.4,214.1,165.4z"/>
<path fill="#DCDDDE" d="M234.5,185.9l-7.4,0c-2.3,0-4.1-1.8-4.1-4.1l0-7.4c0-2.3,1.8-4.1,4.1-4.1l7.4,0c2.3,0,4.1,1.8,4.1,4.1l0,7.4
	C238.6,184,236.7,185.9,234.5,185.9z"/>
<path fill="#DCDDDE" d="M214.2,186l-7.4,0c-2.3,0-4.1-1.8-4.1-4.1l0-7.4c0-2.3,1.8-4.1,4.1-4.1l7.4,0c2.3,0,4.1,1.8,4.1,4.1l0,7.4
	C218.3,184.1,216.5,186,214.2,186z"/>
<path fill="#DCDDDE" d="M288.3,144.9l-7.4,0c-2.3,0-4.1-1.8-4.1-4.1l0-7.4c0-2.3,1.8-4.1,4.1-4.1l7.4,0c2.3,0,4.1,1.8,4.1,4.1l0,7.4
	C292.3,143,290.5,144.9,288.3,144.9z"/>
<path fill="#07B4C8" d="M268,145.6l-7.4,0c-2.3,0-4.1-1.8-4.1-4.1l0-7.4c0-2.3,1.8-4.1,4.1-4.1l7.4,0c2.3,0,4.1,1.8,4.1,4.1l0,7.4
	C272.1,143.7,270.2,145.6,268,145.6z"/>
<path fill="#07B4C8" d="M288.4,165.7l-7.4,0c-2.3,0-4.1-1.8-4.1-4.1l0-7.4c0-2.3,1.8-4.1,4.1-4.1l7.4,0c2.3,0,4.1,1.8,4.1,4.1l0,7.4
	C292.4,163.8,290.6,165.7,288.4,165.7z"/>
<path fill="#DCDDDE" d="M268.1,165.2l-7.4,0c-2.3,0-4.1-1.8-4.1-4.1l0-7.4c0-2.3,1.8-4.1,4.1-4.1l7.4,0c2.3,0,4.1,1.8,4.1,4.1l0,7.4
	C272.2,163.3,270.3,165.2,268.1,165.2z"/>
<path fill="#DCDDDE" d="M288.5,185.7l-7.4,0c-2.3,0-4.1-1.8-4.1-4.1l0-7.4c0-2.3,1.8-4.1,4.1-4.1l7.4,0c2.3,0,4.1,1.8,4.1,4.1l0,7.4
	C292.6,183.9,290.7,185.7,288.5,185.7z"/>
<path fill="#DCDDDE" d="M268.2,185.8l-7.4,0c-2.3,0-4.1-1.8-4.1-4.1l0-7.4c0-2.3,1.8-4.1,4.1-4.1l7.4,0c2.3,0,4.1,1.8,4.1,4.1l0,7.4
	C272.3,184,270.5,185.8,268.2,185.8z"/>
<path fill="#07B4C8" d="M342.3,145.3l-7.4,0c-2.3,0-4.1-1.8-4.1-4.1l0-7.4c0-2.3,1.8-4.1,4.1-4.1l7.4,0c2.3,0,4.1,1.8,4.1,4.1l0,7.4
	C346.3,143.5,344.5,145.3,342.3,145.3z"/>
<path fill="#07B4C8" d="M322,145.4l-7.4,0c-2.3,0-4.1-1.8-4.1-4.1l0-7.4c0-2.3,1.8-4.1,4.1-4.1l7.4,0c2.3,0,4.1,1.8,4.1,4.1l0,7.4
	C326.1,143.6,324.2,145.4,322,145.4z"/>
<path fill="#DCDDDE" d="M342.4,164.9l-7.4,0c-2.3,0-4.1-1.8-4.1-4.1l0-7.4c0-2.3,1.8-4.1,4.1-4.1l7.4,0c2.3,0,4.1,1.8,4.1,4.1l0,7.4
	C346.4,163.1,344.6,164.9,342.4,164.9z"/>
<path fill="#07B4C8" d="M322.1,165.6l-7.4,0c-2.3,0-4.1-1.8-4.1-4.1l0-7.4c0-2.3,1.8-4.1,4.1-4.1l7.4,0c2.3,0,4.1,1.8,4.1,4.1l0,7.4
	C326.2,163.8,324.3,165.6,322.1,165.6z"/>
<path fill="#DCDDDE" d="M342.5,185.6l-7.4,0c-2.3,0-4.1-1.8-4.1-4.1l0-7.4c0-2.3,1.8-4.1,4.1-4.1l7.4,0c2.3,0,4.1,1.8,4.1,4.1l0,7.4
	C346.6,183.7,344.7,185.6,342.5,185.6z"/>
<path fill="#DCDDDE" d="M322.2,185.7l-7.4,0c-2.3,0-4.1-1.8-4.1-4.1l0-7.4c0-2.3,1.8-4.1,4.1-4.1l7.4,0c2.3,0,4.1,1.8,4.1,4.1l0,7.4
	C326.3,183.8,324.5,185.7,322.2,185.7z"/>
<path fill="#07B4C8" d="M396.3,145.2l-7.4,0c-2.3,0-4.1-1.8-4.1-4.1l0-7.4c0-2.3,1.8-4.1,4.1-4.1l7.4,0c2.3,0,4.1,1.8,4.1,4.1l0,7.4
	C400.3,143.3,398.5,145.1,396.3,145.2z"/>
<path fill="#07B4C8" d="M376,145.3l-7.4,0c-2.3,0-4.1-1.8-4.1-4.1l0-7.4c0-2.3,1.8-4.1,4.1-4.1l7.4,0c2.3,0,4.1,1.8,4.1,4.1l0,7.4
	C380.1,143.4,378.2,145.3,376,145.3z"/>
<path fill="#07B4C8" d="M396.4,165.4l-7.4,0c-2.3,0-4.1-1.8-4.1-4.1l0-7.4c0-2.3,1.8-4.1,4.1-4.1l7.4,0c2.3,0,4.1,1.8,4.1,4.1l0,7.4
	C400.4,163.5,398.6,165.4,396.4,165.4z"/>
<path fill="#07B4C8" d="M376.1,165.5l-7.4,0c-2.3,0-4.1-1.8-4.1-4.1l0-7.4c0-2.3,1.8-4.1,4.1-4.1l7.4,0c2.3,0,4.1,1.8,4.1,4.1l0,7.4
	C380.2,163.6,378.3,165.5,376.1,165.5z"/>
<path fill="#DCDDDE" d="M396.5,185.4l-7.4,0c-2.3,0-4.1-1.8-4.1-4.1l0-7.4c0-2.3,1.8-4.1,4.1-4.1l7.4,0c2.3,0,4.1,1.8,4.1,4.1l0,7.4
	C400.6,183.6,398.7,185.4,396.5,185.4z"/>
<path fill="#DCDDDE" d="M376.2,185.5l-7.4,0c-2.3,0-4.1-1.8-4.1-4.1l0-7.4c0-2.3,1.8-4.1,4.1-4.1l7.4,0c2.3,0,4.1,1.8,4.1,4.1l0,7.4
	C380.3,183.7,378.5,185.5,376.2,185.5z"/>
<path fill="#DCDDDE" d="M450.3,144.4l-7.4,0c-2.3,0-4.1-1.8-4.1-4.1l0-7.4c0-2.3,1.8-4.1,4.1-4.1l7.4,0c2.3,0,4.1,1.8,4.1,4.1l0,7.4
	C454.3,142.5,452.5,144.4,450.3,144.4z"/>
<path fill="#07B4C8" d="M430,145.1l-7.4,0c-2.3,0-4.1-1.8-4.1-4.1l0-7.4c0-2.3,1.8-4.1,4.1-4.1l7.4,0c2.3,0,4.1,1.8,4.1,4.1l0,7.4
	C434.1,143.3,432.2,145.1,430,145.1z"/>
<path fill="#07B4C8" d="M450.4,164.6l-7.4,0c-2.3,0-4.1-1.8-4.1-4.1l0-7.4c0-2.3,1.8-4.1,4.1-4.1l7.4,0c2.3,0,4.1,1.8,4.1,4.1l0,7.4
	C454.5,162.8,452.6,164.6,450.4,164.6z"/>
<path fill="#07B4C8" d="M430.1,164.7l-7.4,0c-2.3,0-4.1-1.8-4.1-4.1l0-7.4c0-2.3,1.8-4.1,4.1-4.1l7.4,0c2.3,0,4.1,1.8,4.1,4.1l0,7.4
	C434.2,162.9,432.3,164.7,430.1,164.7z"/>
<path fill="#DCDDDE" d="M450.5,185.2l-7.4,0c-2.3,0-4.1-1.8-4.1-4.1l0-7.4c0-2.3,1.8-4.1,4.1-4.1l7.4,0c2.3,0,4.1,1.8,4.1,4.1l0,7.4
	C454.6,183.4,452.7,185.2,450.5,185.2z"/>
<path fill="#DCDDDE" d="M430.2,185.4l-7.4,0c-2.3,0-4.1-1.8-4.1-4.1l0-7.4c0-2.3,1.8-4.1,4.1-4.1l7.4,0c2.3,0,4.1,1.8,4.1,4.1l0,7.4
	C434.3,183.5,432.5,185.3,430.2,185.4z"/>
<path fill="#07B4C8" d="M502.7,144.6l-7.4,0c-2.3,0-4.1-1.8-4.1-4.1l0-7.4c0-2.3,1.8-4.1,4.1-4.1l7.4,0c2.3,0,4.1,1.8,4.1,4.1l0,7.4
	C506.8,142.7,505,144.6,502.7,144.6z"/>
<path fill="#DCDDDE" d="M482.4,144.7l-7.4,0c-2.3,0-4.1-1.8-4.1-4.1l0-7.4c0-2.3,1.8-4.1,4.1-4.1l7.4,0c2.3,0,4.1,1.8,4.1,4.1l0,7.4
	C486.5,142.8,484.7,144.7,482.4,144.7z"/>
<path fill="#DCDDDE" d="M502.8,164.8l-7.4,0c-2.3,0-4.1-1.8-4.1-4.1l0-7.4c0-2.3,1.8-4.1,4.1-4.1l7.4,0c2.3,0,4.1,1.8,4.1,4.1l0,7.4
	C506.9,162.9,505.1,164.8,502.8,164.8z"/>
<path fill="#07B4C8" d="M482.5,164.9l-7.4,0c-2.3,0-4.1-1.8-4.1-4.1l0-7.4c0-2.3,1.8-4.1,4.1-4.1l7.4,0c2.3,0,4.1,1.8,4.1,4.1l0,7.4
	C486.6,163,484.8,164.9,482.5,164.9z"/>
<path fill="#DCDDDE" d="M502.9,185.4l-7.4,0c-2.3,0-4.1-1.8-4.1-4.1l0-7.4c0-2.3,1.8-4.1,4.1-4.1l7.4,0c2.3,0,4.1,1.8,4.1,4.1l0,7.4
	C507,183.6,505.2,185.4,502.9,185.4z"/>
<path fill="#DCDDDE" d="M482.6,185.5l-7.4,0c-2.3,0-4.1-1.8-4.1-4.1l0-7.4c0-2.3,1.8-4.1,4.1-4.1l7.4,0c2.3,0,4.1,1.8,4.1,4.1l0,7.4
	C486.7,183.7,484.9,185.5,482.6,185.5z"/>
<path fill="#07B4C8" d="M556.7,144.4l-7.4,0c-2.3,0-4.1-1.8-4.1-4.1l0-7.4c0-2.3,1.8-4.1,4.1-4.1l7.4,0c2.3,0,4.1,1.8,4.1,4.1l0,7.4
	C560.8,142.5,559,144.4,556.7,144.4z"/>
<path fill="#DCDDDE" d="M536.4,144.5l-7.4,0c-2.3,0-4.1-1.8-4.1-4.1l0-7.4c0-2.3,1.8-4.1,4.1-4.1l7.4,0c2.3,0,4.1,1.8,4.1,4.1l0,7.4
	C540.5,142.7,538.7,144.5,536.4,144.5z"/>
<path fill="#07B4C8" d="M556.8,164.6l-7.4,0c-2.3,0-4.1-1.8-4.1-4.1l0-7.4c0-2.3,1.8-4.1,4.1-4.1l7.4,0c2.3,0,4.1,1.8,4.1,4.1l0,7.4
	C560.9,162.8,559.1,164.6,556.8,164.6z"/>
<path fill="#07B4C8" d="M536.5,164.7l-7.4,0c-2.3,0-4.1-1.8-4.1-4.1l0-7.4c0-2.3,1.8-4.1,4.1-4.1l7.4,0c2.3,0,4.1,1.8,4.1,4.1l0,7.4
	C540.6,162.9,538.8,164.7,536.5,164.7z"/>
<path fill="#DCDDDE" d="M556.9,185.2l-7.4,0c-2.3,0-4.1-1.8-4.1-4.1l0-7.4c0-2.3,1.8-4.1,4.1-4.1l7.4,0c2.3,0,4.1,1.8,4.1,4.1l0,7.4
	C561,183.4,559.2,185.2,556.9,185.2z"/>
<path fill="#DCDDDE" d="M536.6,185.4l-7.4,0c-2.3,0-4.1-1.8-4.1-4.1l0-7.4c0-2.3,1.8-4.1,4.1-4.1l7.4,0c2.3,0,4.1,1.8,4.1,4.1l0,7.4
	C540.7,183.5,538.9,185.3,536.6,185.4z"/>
<path fill="#07B4C8" d="M502.7,262.8l-7.4,0c-2.3,0-4.1-1.8-4.1-4.1l0-7.4c0-2.3,1.8-4.1,4.1-4.1l7.4,0c2.3,0,4.1,1.8,4.1,4.1l0,7.4
	C506.8,261,505,262.8,502.7,262.8z"/>
<path fill="#DCDDDE" d="M482.4,262.9l-7.4,0c-2.3,0-4.1-1.8-4.1-4.1l0-7.4c0-2.3,1.8-4.1,4.1-4.1l7.4,0c2.3,0,4.1,1.8,4.1,4.1l0,7.4
	C486.5,261.1,484.7,262.9,482.4,262.9z"/>
<path fill="#DCDDDE" d="M502.8,283l-7.4,0c-2.3,0-4.1-1.8-4.1-4.1l0-7.4c0-2.3,1.8-4.1,4.1-4.1l7.4,0c2.3,0,4.1,1.8,4.1,4.1l0,7.4
	C506.9,281.2,505.1,283,502.8,283z"/>
<path fill="#07B4C8" d="M482.5,283.1l-7.4,0c-2.3,0-4.1-1.8-4.1-4.1l0-7.4c0-2.3,1.8-4.1,4.1-4.1l7.4,0c2.3,0,4.1,1.8,4.1,4.1l0,7.4
	C486.6,281.3,484.8,283.1,482.5,283.1z"/>
<path fill="#DCDDDE" d="M502.9,303.7l-7.4,0c-2.3,0-4.1-1.8-4.1-4.1l0-7.4c0-2.3,1.8-4.1,4.1-4.1l7.4,0c2.3,0,4.1,1.8,4.1,4.1l0,7.4
	C507,301.8,505.2,303.6,502.9,303.7z"/>
<path fill="#07B4C8" d="M482.6,303.8l-7.4,0c-2.3,0-4.1-1.8-4.1-4.1l0-7.4c0-2.3,1.8-4.1,4.1-4.1l7.4,0c2.3,0,4.1,1.8,4.1,4.1l0,7.4
	C486.7,301.9,484.9,303.8,482.6,303.8z"/>
<path fill="#07B4C8" d="M556.7,262.7l-7.4,0c-2.3,0-4.1-1.8-4.1-4.1l0-7.4c0-2.3,1.8-4.1,4.1-4.1l7.4,0c2.3,0,4.1,1.8,4.1,4.1l0,7.4
	C560.8,260.8,559,262.6,556.7,262.7z"/>
<path fill="#DCDDDE" d="M536.4,262.8l-7.4,0c-2.3,0-4.1-1.8-4.1-4.1l0-7.4c0-2.3,1.8-4.1,4.1-4.1l7.4,0c2.3,0,4.1,1.8,4.1,4.1l0,7.4
	C540.5,260.9,538.7,262.8,536.4,262.8z"/>
<path fill="#07B4C8" d="M556.8,282.9l-7.4,0c-2.3,0-4.1-1.8-4.1-4.1l0-7.4c0-2.3,1.8-4.1,4.1-4.1l7.4,0c2.3,0,4.1,1.8,4.1,4.1l0,7.4
	C560.9,281,559.1,282.8,556.8,282.9z"/>
<path fill="#07B4C8" d="M536.5,283l-7.4,0c-2.3,0-4.1-1.8-4.1-4.1l0-7.4c0-2.3,1.8-4.1,4.1-4.1l7.4,0c2.3,0,4.1,1.8,4.1,4.1l0,7.4
	C540.6,281.1,538.8,283,536.5,283z"/>
<path fill="#DCDDDE" d="M556.9,303.5l-7.4,0c-2.3,0-4.1-1.8-4.1-4.1l0-7.4c0-2.3,1.8-4.1,4.1-4.1l7.4,0c2.3,0,4.1,1.8,4.1,4.1l0,7.4
	C561,301.6,559.2,303.5,556.9,303.5z"/>
<path fill="#07B4C8" d="M536.6,303.6l-7.4,0c-2.3,0-4.1-1.8-4.1-4.1l0-7.4c0-2.3,1.8-4.1,4.1-4.1l7.4,0c2.3,0,4.1,1.8,4.1,4.1l0,7.4
	C540.7,301.8,538.9,303.6,536.6,303.6z"/>
<path fill="#DCDDDE" d="M502.7,378.6l-7.4,0c-2.3,0-4.1-1.8-4.1-4.1l0-7.4c0-2.3,1.8-4.1,4.1-4.1l7.4,0c2.3,0,4.1,1.8,4.1,4.1l0,7.4
	C506.8,376.7,505,378.5,502.7,378.6z"/>
<path fill="#DCDDDE" d="M482.4,378.7l-7.4,0c-2.3,0-4.1-1.8-4.1-4.1l0-7.4c0-2.3,1.8-4.1,4.1-4.1l7.4,0c2.3,0,4.1,1.8,4.1,4.1l0,7.4
	C486.5,376.8,484.7,378.7,482.4,378.7z"/>
<path fill="#DCDDDE" d="M502.8,398.8l-7.4,0c-2.3,0-4.1-1.8-4.1-4.1l0-7.4c0-2.3,1.8-4.1,4.1-4.1l7.4,0c2.3,0,4.1,1.8,4.1,4.1l0,7.4
	C506.9,396.9,505.1,398.7,502.8,398.8z"/>
<path fill="#DCDDDE" d="M482.5,398.9l-7.4,0c-2.3,0-4.1-1.8-4.1-4.1l0-7.4c0-2.3,1.8-4.1,4.1-4.1l7.4,0c2.3,0,4.1,1.8,4.1,4.1l0,7.4
	C486.6,397,484.8,398.9,482.5,398.9z"/>
<path fill="#FCB320" d="M502.9,419.4l-7.4,0c-2.3,0-4.1-1.8-4.1-4.1l0-7.4c0-2.3,1.8-4.1,4.1-4.1l7.4,0c2.3,0,4.1,1.8,4.1,4.1l0,7.4
	C507,417.5,505.2,419.4,502.9,419.4z"/>
<path fill="#DCDDDE" d="M482.6,419.5l-7.4,0c-2.3,0-4.1-1.8-4.1-4.1l0-7.4c0-2.3,1.8-4.1,4.1-4.1l7.4,0c2.3,0,4.1,1.8,4.1,4.1l0,7.4
	C486.7,417.7,484.9,419.5,482.6,419.5z"/>
<path fill="#DCDDDE" d="M556.7,378.4l-7.4,0c-2.3,0-4.1-1.8-4.1-4.1l0-7.4c0-2.3,1.8-4.1,4.1-4.1l7.4,0c2.3,0,4.1,1.8,4.1,4.1l0,7.4
	C560.8,376.5,559,378.4,556.7,378.4z"/>
<path fill="#DCDDDE" d="M536.4,378.5l-7.4,0c-2.3,0-4.1-1.8-4.1-4.1l0-7.4c0-2.3,1.8-4.1,4.1-4.1l7.4,0c2.3,0,4.1,1.8,4.1,4.1l0,7.4
	C540.5,376.6,538.7,378.5,536.4,378.5z"/>
<path fill="#FCB320" d="M556.8,398.6l-7.4,0c-2.3,0-4.1-1.8-4.1-4.1l0-7.4c0-2.3,1.8-4.1,4.1-4.1l7.4,0c2.3,0,4.1,1.8,4.1,4.1l0,7.4
	C560.9,396.7,559.1,398.6,556.8,398.6z"/>
<path fill="#DCDDDE" d="M536.5,398.7l-7.4,0c-2.3,0-4.1-1.8-4.1-4.1l0-7.4c0-2.3,1.8-4.1,4.1-4.1l7.4,0c2.3,0,4.1,1.8,4.1,4.1l0,7.4
	C540.6,396.9,538.8,398.7,536.5,398.7z"/>
<path fill="#DCDDDE" d="M556.9,419.2l-7.4,0c-2.3,0-4.1-1.8-4.1-4.1l0-7.4c0-2.3,1.8-4.1,4.1-4.1l7.4,0c2.3,0,4.1,1.8,4.1,4.1l0,7.4
	C561,417.4,559.2,419.2,556.9,419.2z"/>
<path fill="#DCDDDE" d="M536.6,419.3l-7.4,0c-2.3,0-4.1-1.8-4.1-4.1l0-7.4c0-2.3,1.8-4.1,4.1-4.1l7.4,0c2.3,0,4.1,1.8,4.1,4.1l0,7.4
	C540.7,417.5,538.9,419.3,536.6,419.3z"/>
<path fill="#DCDDDE" d="M72.2,264.7l-7.4,0c-2.3,0-4.1-1.8-4.1-4.1l0-7.4c0-2.3,1.8-4.1,4.1-4.1l7.4,0c2.3,0,4.1,1.8,4.1,4.1l0,7.4
	C76.3,262.9,74.5,264.7,72.2,264.7z"/>
<path fill="#07B4C8" d="M52,264.8l-7.4,0c-2.3,0-4.1-1.8-4.1-4.1l0-7.4c0-2.3,1.8-4.1,4.1-4.1l7.4,0c2.3,0,4.1,1.8,4.1,4.1l0,7.4
	C56,263,54.2,264.8,52,264.8z"/>
<path fill="#DCDDDE" d="M72.4,284.9l-7.4,0c-2.3,0-4.1-1.8-4.1-4.1l0-7.4c0-2.3,1.8-4.1,4.1-4.1l7.4,0c2.3,0,4.1,1.8,4.1,4.1l0,7.4
	C76.4,283.1,74.6,284.9,72.4,284.9z"/>
<path fill="#DCDDDE" d="M52.1,285l-7.4,0c-2.3,0-4.1-1.8-4.1-4.1l0-7.4c0-2.3,1.8-4.1,4.1-4.1l7.4,0c2.3,0,4.1,1.8,4.1,4.1l0,7.4
	C56.2,283.2,54.3,285,52.1,285z"/>
<path fill="#DCDDDE" d="M72.5,305.6l-7.4,0c-2.3,0-4.1-1.8-4.1-4.1l0-7.4c0-2.3,1.8-4.1,4.1-4.1l7.4,0c2.3,0,4.1,1.8,4.1,4.1l0,7.4
	C76.5,303.7,74.7,305.5,72.5,305.6z"/>
<path fill="#07B4C8" d="M52.2,305.7l-7.4,0c-2.3,0-4.1-1.8-4.1-4.1l0-7.4c0-2.3,1.8-4.1,4.1-4.1l7.4,0c2.3,0,4.1,1.8,4.1,4.1l0,7.4
	C56.3,303.8,54.4,305.7,52.2,305.7z"/>
<path fill="#DCDDDE" d="M126.2,264.5l-7.4,0c-2.3,0-4.1-1.8-4.1-4.1l0-7.4c0-2.3,1.8-4.1,4.1-4.1l7.4,0c2.3,0,4.1,1.8,4.1,4.1l0,7.4
	C130.3,262.7,128.5,264.5,126.2,264.5z"/>
<path fill="#07B4C8" d="M106,264.7l-7.4,0c-2.3,0-4.1-1.8-4.1-4.1l0-7.4c0-2.3,1.8-4.1,4.1-4.1l7.4,0c2.3,0,4.1,1.8,4.1,4.1l0,7.4
	C110,262.8,108.2,264.6,106,264.7z"/>
<path fill="#DCDDDE" d="M126.4,284.8l-7.4,0c-2.3,0-4.1-1.8-4.1-4.1l0-7.4c0-2.3,1.8-4.1,4.1-4.1l7.4,0c2.3,0,4.1,1.8,4.1,4.1l0,7.4
	C130.4,282.9,128.6,284.7,126.4,284.8z"/>
<path fill="#07B4C8" d="M106.1,284.9l-7.4,0c-2.3,0-4.1-1.8-4.1-4.1l0-7.4c0-2.3,1.8-4.1,4.1-4.1l7.4,0c2.3,0,4.1,1.8,4.1,4.1l0,7.4
	C110.2,283,108.3,284.8,106.1,284.9z"/>
<path fill="#DCDDDE" d="M126.5,305.4l-7.4,0c-2.3,0-4.1-1.8-4.1-4.1l0-7.4c0-2.3,1.8-4.1,4.1-4.1l7.4,0c2.3,0,4.1,1.8,4.1,4.1l0,7.4
	C130.6,303.5,128.7,305.4,126.5,305.4z"/>
<path fill="#07B4C8" d="M106.2,305.5l-7.4,0c-2.3,0-4.1-1.8-4.1-4.1l0-7.4c0-2.3,1.8-4.1,4.1-4.1l7.4,0c2.3,0,4.1,1.8,4.1,4.1l0,7.4
	C110.3,303.6,108.4,305.5,106.2,305.5z"/>
<path fill="#07B4C8" d="M180.2,264.4l-7.4,0c-2.3,0-4.1-1.8-4.1-4.1l0-7.4c0-2.3,1.8-4.1,4.1-4.1l7.4,0c2.3,0,4.1,1.8,4.1,4.1l0,7.4
	C184.3,262.5,182.5,264.4,180.2,264.4z"/>
<path fill="#07B4C8" d="M160,264.5l-7.4,0c-2.3,0-4.1-1.8-4.1-4.1l0-7.4c0-2.3,1.8-4.1,4.1-4.1l7.4,0c2.3,0,4.1,1.8,4.1,4.1l0,7.4
	C164,262.6,162.2,264.5,160,264.5z"/>
<path fill="#DCDDDE" d="M180.4,284.6l-7.4,0c-2.3,0-4.1-1.8-4.1-4.1l0-7.4c0-2.3,1.8-4.1,4.1-4.1l7.4,0c2.3,0,4.1,1.8,4.1,4.1l0,7.4
	C184.4,282.7,182.6,284.6,180.4,284.6z"/>
<path fill="#DCDDDE" d="M160.1,284.7l-7.4,0c-2.3,0-4.1-1.8-4.1-4.1l0-7.4c0-2.3,1.8-4.1,4.1-4.1l7.4,0c2.3,0,4.1,1.8,4.1,4.1l0,7.4
	C164.2,282.8,162.3,284.7,160.1,284.7z"/>
<path fill="#DCDDDE" d="M180.5,305.2l-7.4,0c-2.3,0-4.1-1.8-4.1-4.1l0-7.4c0-2.3,1.8-4.1,4.1-4.1l7.4,0c2.3,0,4.1,1.8,4.1,4.1l0,7.4
	C184.6,303.4,182.7,305.2,180.5,305.2z"/>
<path fill="#07B4C8" d="M160.2,305.3l-7.4,0c-2.3,0-4.1-1.8-4.1-4.1l0-7.4c0-2.3,1.8-4.1,4.1-4.1l7.4,0c2.3,0,4.1,1.8,4.1,4.1l0,7.4
	C164.3,303.5,162.5,305.3,160.2,305.3z"/>
<path fill="#07B4C8" d="M234.2,264.2l-7.4,0c-2.3,0-4.1-1.8-4.1-4.1l0-7.4c0-2.3,1.8-4.1,4.1-4.1l7.4,0c2.3,0,4.1,1.8,4.1,4.1l0,7.4
	C238.3,262.4,236.5,264.2,234.2,264.2z"/>
<path fill="#07B4C8" d="M214,264.3l-7.4,0c-2.3,0-4.1-1.8-4.1-4.1l0-7.4c0-2.3,1.8-4.1,4.1-4.1l7.4,0c2.3,0,4.1,1.8,4.1,4.1l0,7.4
	C218.1,262.5,216.2,264.3,214,264.3z"/>
<path fill="#07B4C8" d="M234.4,284.4l-7.4,0c-2.3,0-4.1-1.8-4.1-4.1l0-7.4c0-2.3,1.8-4.1,4.1-4.1l7.4,0c2.3,0,4.1,1.8,4.1,4.1l0,7.4
	C238.4,282.6,236.6,284.4,234.4,284.4z"/>
<path fill="#DCDDDE" d="M214.1,284.5l-7.4,0c-2.3,0-4.1-1.8-4.1-4.1l0-7.4c0-2.3,1.8-4.1,4.1-4.1l7.4,0c2.3,0,4.1,1.8,4.1,4.1l0,7.4
	C218.2,282.7,216.3,284.5,214.1,284.5z"/>
<path fill="#DCDDDE" d="M234.5,305.1l-7.4,0c-2.3,0-4.1-1.8-4.1-4.1l0-7.4c0-2.3,1.8-4.1,4.1-4.1l7.4,0c2.3,0,4.1,1.8,4.1,4.1l0,7.4
	C238.6,303.2,236.7,305.1,234.5,305.1z"/>
<path fill="#07B4C8" d="M214.2,305.2l-7.4,0c-2.3,0-4.1-1.8-4.1-4.1l0-7.4c0-2.3,1.8-4.1,4.1-4.1l7.4,0c2.3,0,4.1,1.8,4.1,4.1l0,7.4
	C218.3,303.3,216.5,305.2,214.2,305.2z"/>
<path fill="#DCDDDE" d="M288.3,264.1l-7.4,0c-2.3,0-4.1-1.8-4.1-4.1l0-7.4c0-2.3,1.8-4.1,4.1-4.1l7.4,0c2.3,0,4.1,1.8,4.1,4.1l0,7.4
	C292.3,262.2,290.5,264,288.3,264.1z"/>
<path fill="#07B4C8" d="M268,264.2l-7.4,0c-2.3,0-4.1-1.8-4.1-4.1l0-7.4c0-2.3,1.8-4.1,4.1-4.1l7.4,0c2.3,0,4.1,1.8,4.1,4.1l0,7.4
	C272.1,262.3,270.2,264.2,268,264.2z"/>
<path fill="#07B4C8" d="M288.4,284.3l-7.4,0c-2.3,0-4.1-1.8-4.1-4.1l0-7.4c0-2.3,1.8-4.1,4.1-4.1l7.4,0c2.3,0,4.1,1.8,4.1,4.1l0,7.4
	C292.4,282.4,290.6,284.3,288.4,284.3z"/>
<path fill="#DCDDDE" d="M268.1,284.4l-7.4,0c-2.3,0-4.1-1.8-4.1-4.1l0-7.4c0-2.3,1.8-4.1,4.1-4.1l7.4,0c2.3,0,4.1,1.8,4.1,4.1l0,7.4
	C272.2,282.5,270.3,284.4,268.1,284.4z"/>
<path fill="#DCDDDE" d="M288.5,304.9l-7.4,0c-2.3,0-4.1-1.8-4.1-4.1l0-7.4c0-2.3,1.8-4.1,4.1-4.1l7.4,0c2.3,0,4.1,1.8,4.1,4.1l0,7.4
	C292.6,303,290.7,304.9,288.5,304.9z"/>
<path fill="#07B4C8" d="M268.2,305l-7.4,0c-2.3,0-4.1-1.8-4.1-4.1l0-7.4c0-2.3,1.8-4.1,4.1-4.1l7.4,0c2.3,0,4.1,1.8,4.1,4.1l0,7.4
	C272.3,303.2,270.5,305,268.2,305z"/>
<path fill="#07B4C8" d="M342.3,263.9l-7.4,0c-2.3,0-4.1-1.8-4.1-4.1l0-7.4c0-2.3,1.8-4.1,4.1-4.1l7.4,0c2.3,0,4.1,1.8,4.1,4.1l0,7.4
	C346.3,262,344.5,263.9,342.3,263.9z"/>
<path fill="#07B4C8" d="M322,264l-7.4,0c-2.3,0-4.1-1.8-4.1-4.1l0-7.4c0-2.3,1.8-4.1,4.1-4.1l7.4,0c2.3,0,4.1,1.8,4.1,4.1l0,7.4
	C326.1,262.2,324.2,264,322,264z"/>
<path fill="#DCDDDE" d="M342.4,284.1l-7.4,0c-2.3,0-4.1-1.8-4.1-4.1l0-7.4c0-2.3,1.8-4.1,4.1-4.1l7.4,0c2.3,0,4.1,1.8,4.1,4.1l0,7.4
	C346.4,282.2,344.6,284.1,342.4,284.1z"/>
<path fill="#07B4C8" d="M322.1,284.2l-7.4,0c-2.3,0-4.1-1.8-4.1-4.1l0-7.4c0-2.3,1.8-4.1,4.1-4.1l7.4,0c2.3,0,4.1,1.8,4.1,4.1l0,7.4
	C326.2,282.4,324.3,284.2,322.1,284.2z"/>
<path fill="#DCDDDE" d="M342.5,304.7l-7.4,0c-2.3,0-4.1-1.8-4.1-4.1l0-7.4c0-2.3,1.8-4.1,4.1-4.1l7.4,0c2.3,0,4.1,1.8,4.1,4.1l0,7.4
	C346.6,302.9,344.7,304.7,342.5,304.7z"/>
<path fill="#07B4C8" d="M322.2,304.9l-7.4,0c-2.3,0-4.1-1.8-4.1-4.1l0-7.4c0-2.3,1.8-4.1,4.1-4.1l7.4,0c2.3,0,4.1,1.8,4.1,4.1l0,7.4
	C326.3,303,324.5,304.8,322.2,304.9z"/>
<path fill="#07B4C8" d="M396.3,263.7l-7.4,0c-2.3,0-4.1-1.8-4.1-4.1l0-7.4c0-2.3,1.8-4.1,4.1-4.1l7.4,0c2.3,0,4.1,1.8,4.1,4.1l0,7.4
	C400.3,261.9,398.5,263.7,396.3,263.7z"/>
<path fill="#07B4C8" d="M376,263.8l-7.4,0c-2.3,0-4.1-1.8-4.1-4.1l0-7.4c0-2.3,1.8-4.1,4.1-4.1l7.4,0c2.3,0,4.1,1.8,4.1,4.1l0,7.4
	C380.1,262,378.2,263.8,376,263.8z"/>
<path fill="#07B4C8" d="M396.4,283.9l-7.4,0c-2.3,0-4.1-1.8-4.1-4.1l0-7.4c0-2.3,1.8-4.1,4.1-4.1l7.4,0c2.3,0,4.1,1.8,4.1,4.1l0,7.4
	C400.4,282.1,398.6,283.9,396.4,283.9z"/>
<path fill="#07B4C8" d="M376.1,284.1l-7.4,0c-2.3,0-4.1-1.8-4.1-4.1l0-7.4c0-2.3,1.8-4.1,4.1-4.1l7.4,0c2.3,0,4.1,1.8,4.1,4.1l0,7.4
	C380.2,282.2,378.3,284,376.1,284.1z"/>
<path fill="#DCDDDE" d="M396.5,304.6l-7.4,0c-2.3,0-4.1-1.8-4.1-4.1l0-7.4c0-2.3,1.8-4.1,4.1-4.1l7.4,0c2.3,0,4.1,1.8,4.1,4.1l0,7.4
	C400.6,302.7,398.7,304.6,396.5,304.6z"/>
<path fill="#07B4C8" d="M376.2,304.7l-7.4,0c-2.3,0-4.1-1.8-4.1-4.1l0-7.4c0-2.3,1.8-4.1,4.1-4.1l7.4,0c2.3,0,4.1,1.8,4.1,4.1l0,7.4
	C380.3,302.8,378.5,304.7,376.2,304.7z"/>
<path fill="#DCDDDE" d="M450.3,263.6l-7.4,0c-2.3,0-4.1-1.8-4.1-4.1l0-7.4c0-2.3,1.8-4.1,4.1-4.1l7.4,0c2.3,0,4.1,1.8,4.1,4.1l0,7.4
	C454.3,261.7,452.5,263.6,450.3,263.6z"/>
<path fill="#07B4C8" d="M430,263.7l-7.4,0c-2.3,0-4.1-1.8-4.1-4.1l0-7.4c0-2.3,1.8-4.1,4.1-4.1l7.4,0c2.3,0,4.1,1.8,4.1,4.1l0,7.4
	C434.1,261.8,432.2,263.7,430,263.7z"/>
<path fill="#07B4C8" d="M450.4,283.8l-7.4,0c-2.3,0-4.1-1.8-4.1-4.1l0-7.4c0-2.3,1.8-4.1,4.1-4.1l7.4,0c2.3,0,4.1,1.8,4.1,4.1l0,7.4
	C454.5,281.9,452.6,283.8,450.4,283.8z"/>
<path fill="#07B4C8" d="M430.1,283.9l-7.4,0c-2.3,0-4.1-1.8-4.1-4.1l0-7.4c0-2.3,1.8-4.1,4.1-4.1l7.4,0c2.3,0,4.1,1.8,4.1,4.1l0,7.4
	C434.2,282,432.3,283.9,430.1,283.9z"/>
<path fill="#DCDDDE" d="M450.5,304.4l-7.4,0c-2.3,0-4.1-1.8-4.1-4.1l0-7.4c0-2.3,1.8-4.1,4.1-4.1l7.4,0c2.3,0,4.1,1.8,4.1,4.1l0,7.4
	C454.6,302.6,452.7,304.4,450.5,304.4z"/>
<path fill="#07B4C8" d="M430.2,304.5l-7.4,0c-2.3,0-4.1-1.8-4.1-4.1l0-7.4c0-2.3,1.8-4.1,4.1-4.1l7.4,0c2.3,0,4.1,1.8,4.1,4.1l0,7.4
	C434.3,302.7,432.5,304.5,430.2,304.5z"/>
<path fill="#DCDDDE" d="M72.2,379.9l-7.4,0c-2.3,0-4.1-1.8-4.1-4.1l0-7.4c0-2.3,1.8-4.1,4.1-4.1l7.4,0c2.3,0,4.1,1.8,4.1,4.1l0,7.4
	C76.3,378,74.5,379.9,72.2,379.9z"/>
<path fill="#07B4C8" d="M52,380l-7.4,0c-2.3,0-4.1-1.8-4.1-4.1l0-7.4c0-2.3,1.8-4.1,4.1-4.1l7.4,0c2.3,0,4.1,1.8,4.1,4.1l0,7.4
	C56,378.1,54.2,380,52,380z"/>
<path fill="#DCDDDE" d="M72.4,400.1l-7.4,0c-2.3,0-4.1-1.8-4.1-4.1l0-7.4c0-2.3,1.8-4.1,4.1-4.1l7.4,0c2.3,0,4.1,1.8,4.1,4.1l0,7.4
	C76.4,398.2,74.6,400.1,72.4,400.1z"/>
<path fill="#DCDDDE" d="M52.1,400.2l-7.4,0c-2.3,0-4.1-1.8-4.1-4.1l0-7.4c0-2.3,1.8-4.1,4.1-4.1l7.4,0c2.3,0,4.1,1.8,4.1,4.1l0,7.4
	C56.2,398.3,54.3,400.2,52.1,400.2z"/>
<path fill="#07B4C8" d="M72.5,420.7l-7.4,0c-2.3,0-4.1-1.8-4.1-4.1l0-7.4c0-2.3,1.8-4.1,4.1-4.1l7.4,0c2.3,0,4.1,1.8,4.1,4.1l0,7.4
	C76.5,418.9,74.7,420.7,72.5,420.7z"/>
<path fill="#07B4C8" d="M52.2,420.8l-7.4,0c-2.3,0-4.1-1.8-4.1-4.1l0-7.4c0-2.3,1.8-4.1,4.1-4.1l7.4,0c2.3,0,4.1,1.8,4.1,4.1l0,7.4
	C56.3,419,54.4,420.8,52.2,420.8z"/>
<path fill="#DCDDDE" d="M126.2,379.7l-7.4,0c-2.3,0-4.1-1.8-4.1-4.1l0-7.4c0-2.3,1.8-4.1,4.1-4.1l7.4,0c2.3,0,4.1,1.8,4.1,4.1l0,7.4
	C130.3,377.9,128.5,379.7,126.2,379.7z"/>
<path fill="#07B4C8" d="M106,379.8l-7.4,0c-2.3,0-4.1-1.8-4.1-4.1l0-7.4c0-2.3,1.8-4.1,4.1-4.1l7.4,0c2.3,0,4.1,1.8,4.1,4.1l0,7.4
	C110,378,108.2,379.8,106,379.8z"/>
<path fill="#DCDDDE" d="M126.4,399.9l-7.4,0c-2.3,0-4.1-1.8-4.1-4.1l0-7.4c0-2.3,1.8-4.1,4.1-4.1l7.4,0c2.3,0,4.1,1.8,4.1,4.1l0,7.4
	C130.4,398.1,128.6,399.9,126.4,399.9z"/>
<path fill="#07B4C8" d="M106.1,400l-7.4,0c-2.3,0-4.1-1.8-4.1-4.1l0-7.4c0-2.3,1.8-4.1,4.1-4.1l7.4,0c2.3,0,4.1,1.8,4.1,4.1l0,7.4
	C110.2,398.2,108.3,400,106.1,400z"/>
<path fill="#07B4C8" d="M126.5,420.6l-7.4,0c-2.3,0-4.1-1.8-4.1-4.1l0-7.4c0-2.3,1.8-4.1,4.1-4.1l7.4,0c2.3,0,4.1,1.8,4.1,4.1l0,7.4
	C130.6,418.7,128.7,420.5,126.5,420.6z"/>
<path fill="#07B4C8" d="M106.2,420.7l-7.4,0c-2.3,0-4.1-1.8-4.1-4.1l0-7.4c0-2.3,1.8-4.1,4.1-4.1l7.4,0c2.3,0,4.1,1.8,4.1,4.1l0,7.4
	C110.3,418.8,108.4,420.7,106.2,420.7z"/>
<path fill="#07B4C8" d="M180.2,379.6l-7.4,0c-2.3,0-4.1-1.8-4.1-4.1l0-7.4c0-2.3,1.8-4.1,4.1-4.1l7.4,0c2.3,0,4.1,1.8,4.1,4.1l0,7.4
	C184.3,377.7,182.5,379.5,180.2,379.6z"/>
<path fill="#DCDDDE" d="M160,379.7l-7.4,0c-2.3,0-4.1-1.8-4.1-4.1l0-7.4c0-2.3,1.8-4.1,4.1-4.1l7.4,0c2.3,0,4.1,1.8,4.1,4.1l0,7.4
	C164,377.8,162.2,379.7,160,379.7z"/>
<path fill="#07B4C8" d="M180.4,399.8l-7.4,0c-2.3,0-4.1-1.8-4.1-4.1l0-7.4c0-2.3,1.8-4.1,4.1-4.1l7.4,0c2.3,0,4.1,1.8,4.1,4.1l0,7.4
	C184.4,397.9,182.6,399.7,180.4,399.8z"/>
<path fill="#07B4C8" d="M160.1,399.9l-7.4,0c-2.3,0-4.1-1.8-4.1-4.1l0-7.4c0-2.3,1.8-4.1,4.1-4.1l7.4,0c2.3,0,4.1,1.8,4.1,4.1l0,7.4
	C164.2,398,162.3,399.9,160.1,399.9z"/>
<path fill="#07B4C8" d="M180.5,420.4l-7.4,0c-2.3,0-4.1-1.8-4.1-4.1l0-7.4c0-2.3,1.8-4.1,4.1-4.1l7.4,0c2.3,0,4.1,1.8,4.1,4.1l0,7.4
	C184.6,418.5,182.7,420.4,180.5,420.4z"/>
<path fill="#DCDDDE" d="M160.2,420.5l-7.4,0c-2.3,0-4.1-1.8-4.1-4.1l0-7.4c0-2.3,1.8-4.1,4.1-4.1l7.4,0c2.3,0,4.1,1.8,4.1,4.1l0,7.4
	C164.3,418.7,162.5,420.5,160.2,420.5z"/>
<path fill="#07B4C8" d="M234.2,379.4l-7.4,0c-2.3,0-4.1-1.8-4.1-4.1l0-7.4c0-2.3,1.8-4.1,4.1-4.1l7.4,0c2.3,0,4.1,1.8,4.1,4.1l0,7.4
	C238.3,377.5,236.5,379.4,234.2,379.4z"/>
<path fill="#07B4C8" d="M214,379.5l-7.4,0c-2.3,0-4.1-1.8-4.1-4.1l0-7.4c0-2.3,1.8-4.1,4.1-4.1l7.4,0c2.3,0,4.1,1.8,4.1,4.1l0,7.4
	C218.1,377.6,216.2,379.5,214,379.5z"/>
<path fill="#DCDDDE" d="M234.4,399.6l-7.4,0c-2.3,0-4.1-1.8-4.1-4.1l0-7.4c0-2.3,1.8-4.1,4.1-4.1l7.4,0c2.3,0,4.1,1.8,4.1,4.1l0,7.4
	C238.4,397.7,236.6,399.6,234.4,399.6z"/>
<path fill="#DCDDDE" d="M214.1,399.7l-7.4,0c-2.3,0-4.1-1.8-4.1-4.1l0-7.4c0-2.3,1.8-4.1,4.1-4.1l7.4,0c2.3,0,4.1,1.8,4.1,4.1l0,7.4
	C218.2,397.9,216.3,399.7,214.1,399.7z"/>
<path fill="#07B4C8" d="M234.5,420.2l-7.4,0c-2.3,0-4.1-1.8-4.1-4.1l0-7.4c0-2.3,1.8-4.1,4.1-4.1l7.4,0c2.3,0,4.1,1.8,4.1,4.1l0,7.4
	C238.6,418.4,236.7,420.2,234.5,420.2z"/>
<path fill="#07B4C8" d="M214.2,420.3l-7.4,0c-2.3,0-4.1-1.8-4.1-4.1l0-7.4c0-2.3,1.8-4.1,4.1-4.1l7.4,0c2.3,0,4.1,1.8,4.1,4.1l0,7.4
	C218.3,418.5,216.5,420.3,214.2,420.3z"/>
<path fill="#07B4C8" d="M288.3,379.2l-7.4,0c-2.3,0-4.1-1.8-4.1-4.1l0-7.4c0-2.3,1.8-4.1,4.1-4.1l7.4,0c2.3,0,4.1,1.8,4.1,4.1l0,7.4
	C292.3,377.4,290.5,379.2,288.3,379.2z"/>
<path fill="#07B4C8" d="M268,379.3l-7.4,0c-2.3,0-4.1-1.8-4.1-4.1l0-7.4c0-2.3,1.8-4.1,4.1-4.1l7.4,0c2.3,0,4.1,1.8,4.1,4.1l0,7.4
	C272.1,377.5,270.2,379.3,268,379.3z"/>
<path fill="#07B4C8" d="M288.4,399.4l-7.4,0c-2.3,0-4.1-1.8-4.1-4.1l0-7.4c0-2.3,1.8-4.1,4.1-4.1l7.4,0c2.3,0,4.1,1.8,4.1,4.1l0,7.4
	C292.4,397.6,290.6,399.4,288.4,399.4z"/>
<path fill="#DCDDDE" d="M268.1,399.5l-7.4,0c-2.3,0-4.1-1.8-4.1-4.1l0-7.4c0-2.3,1.8-4.1,4.1-4.1l7.4,0c2.3,0,4.1,1.8,4.1,4.1l0,7.4
	C272.2,397.7,270.3,399.5,268.1,399.5z"/>
<path fill="#07B4C8" d="M288.5,420.1l-7.4,0c-2.3,0-4.1-1.8-4.1-4.1l0-7.4c0-2.3,1.8-4.1,4.1-4.1l7.4,0c2.3,0,4.1,1.8,4.1,4.1l0,7.4
	C292.6,418.2,290.7,420.1,288.5,420.1z"/>
<path fill="#07B4C8" d="M268.2,420.2l-7.4,0c-2.3,0-4.1-1.8-4.1-4.1l0-7.4c0-2.3,1.8-4.1,4.1-4.1l7.4,0c2.3,0,4.1,1.8,4.1,4.1l0,7.4
	C272.3,418.3,270.5,420.2,268.2,420.2z"/>
<path fill="#DCDDDE" d="M342.3,379.1l-7.4,0c-2.3,0-4.1-1.8-4.1-4.1l0-7.4c0-2.3,1.8-4.1,4.1-4.1l7.4,0c2.3,0,4.1,1.8,4.1,4.1l0,7.4
	C346.3,377.2,344.5,379.1,342.3,379.1z"/>
<path fill="#07B4C8" d="M322,379.2l-7.4,0c-2.3,0-4.1-1.8-4.1-4.1l0-7.4c0-2.3,1.8-4.1,4.1-4.1l7.4,0c2.3,0,4.1,1.8,4.1,4.1l0,7.4
	C326.1,377.3,324.2,379.2,322,379.2z"/>
<path fill="#07B4C8" d="M342.4,399.3l-7.4,0c-2.3,0-4.1-1.8-4.1-4.1l0-7.4c0-2.3,1.8-4.1,4.1-4.1l7.4,0c2.3,0,4.1,1.8,4.1,4.1l0,7.4
	C346.4,397.4,344.6,399.3,342.4,399.3z"/>
<path fill="#DCDDDE" d="M322.1,399.4l-7.4,0c-2.3,0-4.1-1.8-4.1-4.1l0-7.4c0-2.3,1.8-4.1,4.1-4.1l7.4,0c2.3,0,4.1,1.8,4.1,4.1l0,7.4
	C326.2,397.5,324.3,399.4,322.1,399.4z"/>
<path fill="#07B4C8" d="M342.5,419.9l-7.4,0c-2.3,0-4.1-1.8-4.1-4.1l0-7.4c0-2.3,1.8-4.1,4.1-4.1l7.4,0c2.3,0,4.1,1.8,4.1,4.1l0,7.4
	C346.6,418.1,344.7,419.9,342.5,419.9z"/>
<path fill="#07B4C8" d="M322.2,420l-7.4,0c-2.3,0-4.1-1.8-4.1-4.1l0-7.4c0-2.3,1.8-4.1,4.1-4.1l7.4,0c2.3,0,4.1,1.8,4.1,4.1l0,7.4
	C326.3,418.2,324.5,420,322.2,420z"/>
<path fill="#DCDDDE" d="M396.3,378.9l-7.4,0c-2.3,0-4.1-1.8-4.1-4.1l0-7.4c0-2.3,1.8-4.1,4.1-4.1l7.4,0c2.3,0,4.1,1.8,4.1,4.1l0,7.4
	C400.3,377.1,398.5,378.9,396.3,378.9z"/>
<path fill="#DCDDDE" d="M376,379l-7.4,0c-2.3,0-4.1-1.8-4.1-4.1l0-7.4c0-2.3,1.8-4.1,4.1-4.1l7.4,0c2.3,0,4.1,1.8,4.1,4.1l0,7.4
	C380.1,377.2,378.2,379,376,379z"/>
<path fill="#DCDDDE" d="M396.4,399.1l-7.4,0c-2.3,0-4.1-1.8-4.1-4.1l0-7.4c0-2.3,1.8-4.1,4.1-4.1l7.4,0c2.3,0,4.1,1.8,4.1,4.1l0,7.4
	C400.4,397.3,398.6,399.1,396.4,399.1z"/>
<path fill="#DCDDDE" d="M376.1,399.2l-7.4,0c-2.3,0-4.1-1.8-4.1-4.1l0-7.4c0-2.3,1.8-4.1,4.1-4.1l7.4,0c2.3,0,4.1,1.8,4.1,4.1l0,7.4
	C380.2,397.4,378.3,399.2,376.1,399.2z"/>
<path fill="#DCDDDE" d="M396.5,419.8l-7.4,0c-2.3,0-4.1-1.8-4.1-4.1l0-7.4c0-2.3,1.8-4.1,4.1-4.1l7.4,0c2.3,0,4.1,1.8,4.1,4.1l0,7.4
	C400.6,417.9,398.7,419.7,396.5,419.8z"/>
<path fill="#FCB320" d="M376.2,419.9l-7.4,0c-2.3,0-4.1-1.8-4.1-4.1l0-7.4c0-2.3,1.8-4.1,4.1-4.1l7.4,0c2.3,0,4.1,1.8,4.1,4.1l0,7.4
	C380.3,418,378.5,419.9,376.2,419.9z"/>
<path fill="#FCB320" d="M450.3,378.7l-7.4,0c-2.3,0-4.1-1.8-4.1-4.1l0-7.4c0-2.3,1.8-4.1,4.1-4.1l7.4,0c2.3,0,4.1,1.8,4.1,4.1l0,7.4
	C454.3,376.9,452.5,378.7,450.3,378.7z"/>
<path fill="#DCDDDE" d="M430,378.9l-7.4,0c-2.3,0-4.1-1.8-4.1-4.1l0-7.4c0-2.3,1.8-4.1,4.1-4.1l7.4,0c2.3,0,4.1,1.8,4.1,4.1l0,7.4
	C434.1,377,432.2,378.8,430,378.9z"/>
<path fill="#DCDDDE" d="M450.4,399l-7.4,0c-2.3,0-4.1-1.8-4.1-4.1l0-7.4c0-2.3,1.8-4.1,4.1-4.1l7.4,0c2.3,0,4.1,1.8,4.1,4.1l0,7.4
	C454.5,397.1,452.6,398.9,450.4,399z"/>
<path fill="#DCDDDE" d="M430.1,399.1l-7.4,0c-2.3,0-4.1-1.8-4.1-4.1l0-7.4c0-2.3,1.8-4.1,4.1-4.1l7.4,0c2.3,0,4.1,1.8,4.1,4.1l0,7.4
	C434.2,397.2,432.3,399,430.1,399.1z"/>
<path fill="#DCDDDE" d="M450.5,419.6l-7.4,0c-2.3,0-4.1-1.8-4.1-4.1l0-7.4c0-2.3,1.8-4.1,4.1-4.1l7.4,0c2.3,0,4.1,1.8,4.1,4.1l0,7.4
	C454.6,417.7,452.7,419.6,450.5,419.6z"/>
<path fill="#DCDDDE" d="M430.2,419.7l-7.4,0c-2.3,0-4.1-1.8-4.1-4.1l0-7.4c0-2.3,1.8-4.1,4.1-4.1l7.4,0c2.3,0,4.1,1.8,4.1,4.1l0,7.4
	C434.3,417.8,432.5,419.7,430.2,419.7z"/>
<path d="M62.9,205.5v0.9c-1.2-0.8-2.6-1.3-4.2-1.3c-4,0-7.2,3.3-7.2,7.3c0,4,3.2,7.3,7.2,7.3c1.6,0,3-0.4,4.2-1.3v0.9h2.8v-13.9
	H62.9z M58.9,217.1c-2.6,0-4.6-2.1-4.6-4.7c0-2.6,2-4.7,4.6-4.7c1.6,0,3,0.7,4,2v5.3C61.9,216.4,60.6,217.1,58.9,217.1z"/>
<path d="M112.1,205.3c-1.6,0-3,0.4-4.2,1.3v-7.9h-2.8v20.9h2.8v-0.9c1.2,0.8,2.6,1.3,4.2,1.3c4,0,7.2-3.3,7.2-7.3
	S116.1,205.3,112.1,205.3z M107.9,210.1c1-1.4,2.4-2.1,4-2.1c2.5,0,4.6,2.1,4.6,4.7c0,2.6-2,4.7-4.6,4.7c-1.7,0-3-0.7-4-2.1V210.1z"
	/>
<path d="M169.7,214.8c-0.4,1.6-1.8,2.6-3.6,2.6c-2.5,0-4.4-1.9-4.4-4.6c0-2.7,1.8-4.6,4.4-4.6c1.9,0,3.3,1,3.6,2.6l0.1,0.4h2.9
	l-0.1-0.6c-0.6-3-3.2-5.1-6.6-5.1c-4.1,0-7.2,3.1-7.2,7.3c0,4.2,3.1,7.3,7.2,7.3c3.3,0,6-2,6.6-5.1l0.1-0.6h-2.9L169.7,214.8z"/>
<path d="M223.6,199v7.9c-1.2-0.8-2.6-1.3-4.2-1.3c-4,0-7.2,3.3-7.2,7.3s3.2,7.3,7.2,7.3c1.6,0,3-0.4,4.2-1.3v0.9h2.8V199H223.6z
	 M219.6,217.6c-2.5,0-4.6-2.1-4.6-4.7c0-2.6,2-4.7,4.6-4.7c1.6,0,3,0.7,4,2.1v5.3C222.6,216.9,221.3,217.6,219.6,217.6z"/>
<path d="M274.1,205.8c-4.1,0-7.2,3.1-7.2,7.3c0,4.2,3.1,7.3,7.2,7.3c3,0,5.5-1.6,6.3-4l0.2-0.6h-3l-0.1,0.3
	c-0.5,1.1-1.8,1.7-3.3,1.7c-2.2,0-3.9-1.4-4.3-3.5h10.4l0.5,0.3l0.1-0.7c0-0.3,0-0.6,0-0.9C280.9,208.9,278,205.8,274.1,205.8z
	 M274,208.4c2.1,0,3.5,1.3,3.9,3.5h-8.1C270.2,210.1,271.6,208.4,274,208.4z"/>
<path d="M329,202.7c0-1.6,1-2.6,2.6-2.6c0.5,0,1.3,0.1,1.9,0.3l0.5,0.1l0.5-2.6l-0.4-0.1c-0.9-0.3-1.9-0.4-2.8-0.4
	c-3,0-5.1,2.2-5.1,5.4v2.9h-3.8v2.6h3.8v11.3h2.8v-11.3h5.2v-2.6H329V202.7z"/>
<path d="M386.3,205.9v0.9c-1.3-0.9-2.8-1.3-4.4-1.3c-4,0-7,3.1-7,7.2c0,3.9,3.1,7.1,7,7.1c1.7,0,3.2-0.5,4.4-1.3l0,1.3
	c0,2.6-1.6,4.2-4.1,4.2c-2.1,0-3.6-1-4-2.7l-0.1-0.4h-2.9l0.1,0.5c0.5,3.1,3.3,5.2,6.9,5.2c4.1,0,6.9-2.8,6.9-6.9v-13.9H386.3z
	 M382.1,217.2c-2.4,0-4.4-2-4.4-4.5c0-2.6,1.9-4.6,4.4-4.6c1.7,0,3.2,0.8,4.2,2.1v4.9C385.3,216.4,383.9,217.2,382.1,217.2z"/>
<path d="M438.2,205.4c-1.6,0-3.1,0.5-4.3,1.4v-7.9H431v20.9h2.8v-9.5c1-1.3,2.5-2.1,4-2.1c2.2,0,3.5,1.4,3.5,3.8v7.9h2.8v-7.9
	C444.2,208,441.8,205.4,438.2,205.4z"/>
<g>
	<path d="M489.1,202.2c1.1,0,1.9-0.8,1.9-1.9c0-1.1-0.9-1.9-1.9-1.9c-1.1,0-1.9,0.8-1.9,1.9C487.2,201.4,488,202.2,489.1,202.2z"/>
	<rect x="487.6" y="205.1" width="3" height="14.9"/>
</g>
<g>
	<path d="M542,204.4c1,0,1.8-0.8,1.8-1.8c0-1-0.8-1.8-1.8-1.8c-1,0-1.8,0.8-1.8,1.8C540.3,203.6,541,204.4,542,204.4z"/>
	<path d="M540.6,220.5c0,2.3-0.6,2.9-2.6,3l-0.5,0l0.2,2.6l0.4,0c3.7,0,5.3-1.7,5.3-5.8v-13.2h-2.9V220.5z"/>
</g>
<polygon points="58.9,334.9 65.1,328.9 61.2,328.9 54.6,335.2 54.6,321.9 51.8,321.9 51.7,342.8 54.6,342.8 54.6,339 56.8,336.8 
	62.2,342.8 66,342.8 "/>
<rect x="111.5" y="322" width="2.8" height="20.9"/>
<path d="M172.3,328.5c-2.1,0-3.8,0.7-5.1,2.1c-1-1.4-2.6-2.1-4.5-2.1c-1.6,0-2.8,0.4-3.9,1.3v-0.9H156v13.9h2.8v-9.6
	c0.9-1.3,2.1-2,3.5-2c2.1,0,3.3,1.4,3.3,3.8v7.9h2.8v-7.9c0-0.6,0-1.1-0.1-1.6c0.9-1.4,2.1-2.1,3.7-2.1c2.1,0,3.3,1.4,3.3,3.8v7.9
	h2.8v-7.9C178.1,331.1,175.8,328.5,172.3,328.5z"/>
<path d="M221.7,328.5c-1.6,0-3.1,0.5-4.3,1.4v-1h-2.8v13.9h2.8v-9.5c1-1.3,2.5-2.1,4-2.1c2.2,0,3.5,1.4,3.5,3.8v7.9h2.8v-7.9
	C227.7,331.1,225.3,328.5,221.7,328.5z"/>
<path d="M275.2,329c-4.1,0-7.4,3.2-7.4,7.3c0,4.1,3.2,7.4,7.4,7.4c4.1,0,7.3-3.2,7.3-7.4C282.6,332.2,279.4,329,275.2,329z
	 M275.2,341c-2.5,0-4.5-2.1-4.5-4.7c0-2.6,2-4.6,4.5-4.6s4.5,2,4.5,4.6C279.8,338.9,277.8,341,275.2,341z"/>
<path d="M329.3,328.5c-1.6,0-3,0.4-4.2,1.3v-1h-2.8v20.9h2.8v-7.9c1.2,0.8,2.6,1.3,4.2,1.3c4,0,7.2-3.2,7.2-7.3
	C336.5,331.7,333.2,328.5,329.3,328.5z M325.1,333.2c1-1.4,2.3-2.1,4-2.1c2.5,0,4.6,2.1,4.6,4.7c0,2.6-2,4.7-4.6,4.7
	c-1.7,0-3-0.7-4-2.1V333.2z"/>
<path d="M387.7,328.8v0.9c-1.2-0.8-2.6-1.3-4.2-1.3c-4,0-7.2,3.3-7.2,7.3c0,4,3.2,7.3,7.2,7.3c1.6,0,3-0.4,4.2-1.3v7.9h2.8v-20.9
	H387.7z M383.7,340.5c-2.6,0-4.6-2.1-4.6-4.7c0-2.6,2-4.7,4.6-4.7c1.6,0,3,0.7,4,2v5.3C386.7,339.8,385.4,340.5,383.7,340.5z"/>
<path d="M441.3,328.5c-1.9,0-3.6,0.7-4.9,1.9v-1.6h-3v14.9h3v-9.4c1.1-1.8,2.9-2.8,4.9-2.9l0.5,0v-2.9H441.3z"/>
<path d="M493.7,334.6l-2.8-0.5c-2.3-0.3-2.3-1.3-2.3-1.7c0-1.1,1.2-1.8,3-1.8c1.5,0,3.3,0.4,3.6,2.3l0.1,0.4h2.9l0-0.5
	c-0.3-3.6-3.7-4.9-6.5-4.9c-3.6,0-6,1.9-6,4.6c0,1.6,0.8,3.6,4.5,4.2l3.2,0.5c0.6,0.1,2,0.4,2,1.7c0,1.2-1.3,2-3.3,2
	c-2.3,0-3.7-0.9-4.1-2.6l-0.1-0.4h-2.9l0.1,0.6c0.5,3.3,3,5.2,6.9,5.2c3.8,0,6.3-1.9,6.3-4.8C498.3,336.5,496.8,335.1,493.7,334.6z"
	/>
<path d="M551.5,340.3l-0.5,0.1c-0.8,0.2-1.6,0.3-2.2,0.3c-1.6,0-2.6-0.5-2.6-3v-6.6h5.2v-2.8h-5.2v-5.1h-3v5.1h-3.7v2.8h3.7v6.6
	c0,4.9,2.9,5.9,5.3,5.9c1,0,1.9-0.1,3.1-0.5l0.4-0.1L551.5,340.3z"/>
<path d="M59.2,441.2v10.2c-1.1,1.4-2.7,2.2-4.2,2.2c-2.3,0-3.7-1.5-3.7-4.1v-8.4h-3v8.5c0,4.1,2.6,6.8,6.4,6.8
	c1.7,0,3.3-0.5,4.6-1.5v1h3v-14.9H59.2z"/>
<polygon points="115.1,441.7 110,452.3 105,441.7 101.7,441.7 108.8,456.6 111.3,456.6 118.4,441.7 "/>
<polygon points="448.2,447.7 432.7,447.7 438.4,444.4 438.4,441.3 426.3,447.9 426.3,450.3 438.4,457 438.4,453.8 432.8,450.6 
	448.2,450.6 "/>
<polygon points="497.2,449.2 490.6,437.1 488.2,437.1 481.5,449.2 484.7,449.2 488,443.6 488,457 490.8,457 490.8,443.5 
	494.1,449.2 "/>
<polygon points="173,441.7 169.4,451.3 166.1,441.7 163.6,441.7 160.3,451.3 156.8,441.7 153.5,441.7 159.1,456.6 161.7,456.6 
	164.9,447.1 168.1,456.6 170.7,456.6 176.2,441.7 "/>
<polygon points="221.7,449.1 227.7,441.7 223.9,441.7 219.7,446.8 215.5,441.7 211.7,441.7 217.7,449.1 211.6,456.6 215.3,456.6 
	219.7,451.3 224.1,456.6 227.8,456.6 "/>
<polygon points="280,441.7 274.7,453.2 269.1,441.7 265.8,441.7 273.1,456.8 269.8,464 273.1,464 283.3,441.7 "/>
<polygon points="335.8,441.7 323.2,441.7 323.2,444.5 331.3,444.5 322.9,454.8 322.9,456.6 335.8,456.6 335.8,453.8 327.5,453.8 
	335.8,443.6 "/>
<g>
	<polygon points="388.9,449.8 388.9,453.6 373.7,453.6 373.7,449.8 370.8,449.8 370.8,453.6 370.8,456.5 373.7,456.5 388.9,456.5 
		391.7,456.5 391.7,453.6 391.7,449.8 	"/>
</g>
<polygon points="548.6,433.4 548.6,447.6 539.6,447.6 545,444.4 545,441.3 532.9,447.9 532.9,450.3 545,457 545,453.8 539.1,450.4 
	548.6,450.4 551.4,450.4 551.4,447.6 551.4,433.4 "/>
<path fill="#EE4494" d="M72.2,506.9l-7.4,0c-2.3,0-4.1-1.8-4.1-4.1l0-7.4c0-2.3,1.8-4.1,4.1-4.1l7.4,0c2.3,0,4.1,1.8,4.1,4.1l0,7.4
	C76.3,505,74.5,506.9,72.2,506.9z"/>
<path fill="#DCDDDE" d="M52,507l-7.4,0c-2.3,0-4.1-1.8-4.1-4.1l0-7.4c0-2.3,1.8-4.1,4.1-4.1l7.4,0c2.3,0,4.1,1.8,4.1,4.1l0,7.4
	C56,505.1,54.2,507,52,507z"/>
<path fill="#EE4494" d="M72.3,527.1l-7.4,0c-2.3,0-4.1-1.8-4.1-4.1l0-7.4c0-2.3,1.8-4.1,4.1-4.1l7.4,0c2.3,0,4.1,1.8,4.1,4.1l0,7.4
	C76.4,525.2,74.6,527.1,72.3,527.1z"/>
<path fill="#DCDDDE" d="M52.1,527.2l-7.4,0c-2.3,0-4.1-1.8-4.1-4.1l0-7.4c0-2.3,1.8-4.1,4.1-4.1l7.4,0c2.3,0,4.1,1.8,4.1,4.1l0,7.4
	C56.2,525.3,54.3,527.2,52.1,527.2z"/>
<path fill="#EE4494" d="M72.5,547.7l-7.4,0c-2.3,0-4.1-1.8-4.1-4.1l0-7.4c0-2.3,1.8-4.1,4.1-4.1l7.4,0c2.3,0,4.1,1.8,4.1,4.1l0,7.4
	C76.5,545.9,74.7,547.7,72.5,547.7z"/>
<path fill="#EE4494" d="M52.2,547.8l-7.4,0c-2.3,0-4.1-1.8-4.1-4.1l0-7.4c0-2.3,1.8-4.1,4.1-4.1l7.4,0c2.3,0,4.1,1.8,4.1,4.1l0,7.4
	C56.3,546,54.4,547.8,52.2,547.8z"/>
<path fill="#DCDDDE" d="M502.7,639.2l-7.4,0c-2.3,0-4.1-1.8-4.1-4.1l0-7.4c0-2.3,1.8-4.1,4.1-4.1l7.4,0c2.3,0,4.1,1.8,4.1,4.1l0,7.4
	C506.8,637.3,505,639.2,502.7,639.2z"/>
<path fill="#EE4494" d="M482.4,639.3l-7.4,0c-2.3,0-4.1-1.8-4.1-4.1l0-7.4c0-2.3,1.8-4.1,4.1-4.1l7.4,0c2.3,0,4.1,1.8,4.1,4.1l0,7.4
	C486.5,637.4,484.7,639.3,482.4,639.3z"/>
<path fill="#EE4494" d="M502.8,659.4l-7.4,0c-2.3,0-4.1-1.8-4.1-4.1l0-7.4c0-2.3,1.8-4.1,4.1-4.1l7.4,0c2.3,0,4.1,1.8,4.1,4.1l0,7.4
	C506.9,657.5,505.1,659.4,502.8,659.4z"/>
<path fill="#EE4494" d="M482.5,659.5l-7.4,0c-2.3,0-4.1-1.8-4.1-4.1l0-7.4c0-2.3,1.8-4.1,4.1-4.1l7.4,0c2.3,0,4.1,1.8,4.1,4.1l0,7.4
	C486.6,657.6,484.8,659.5,482.5,659.5z"/>
<path fill="#DCDDDE" d="M502.9,680l-7.4,0c-2.3,0-4.1-1.8-4.1-4.1l0-7.4c0-2.3,1.8-4.1,4.1-4.1l7.4,0c2.3,0,4.1,1.8,4.1,4.1l0,7.4
	C507,678.2,505.2,680,502.9,680z"/>
<path fill="#DCDDDE" d="M482.6,680.1l-7.4,0c-2.3,0-4.1-1.8-4.1-4.1l0-7.4c0-2.3,1.8-4.1,4.1-4.1l7.4,0c2.3,0,4.1,1.8,4.1,4.1l0,7.4
	C486.7,678.3,484.9,680.1,482.6,680.1z"/>
<path fill="#EE4494" d="M556.7,639l-7.4,0c-2.3,0-4.1-1.8-4.1-4.1l0-7.4c0-2.3,1.8-4.1,4.1-4.1l7.4,0c2.3,0,4.1,1.8,4.1,4.1l0,7.4
	C560.8,637.2,559,639,556.7,639z"/>
<path fill="#DCDDDE" d="M536.4,639.1l-7.4,0c-2.3,0-4.1-1.8-4.1-4.1l0-7.4c0-2.3,1.8-4.1,4.1-4.1l7.4,0c2.3,0,4.1,1.8,4.1,4.1l0,7.4
	C540.5,637.3,538.7,639.1,536.4,639.1z"/>
<path fill="#DCDDDE" d="M556.8,659.2l-7.4,0c-2.3,0-4.1-1.8-4.1-4.1l0-7.4c0-2.3,1.8-4.1,4.1-4.1l7.4,0c2.3,0,4.1,1.8,4.1,4.1l0,7.4
	C560.9,657.4,559.1,659.2,556.8,659.2z"/>
<path fill="#EE4494" d="M536.5,659.3l-7.4,0c-2.3,0-4.1-1.8-4.1-4.1l0-7.4c0-2.3,1.8-4.1,4.1-4.1l7.4,0c2.3,0,4.1,1.8,4.1,4.1l0,7.4
	C540.6,657.5,538.8,659.3,536.5,659.3z"/>
<path fill="#DCDDDE" d="M556.9,679.9l-7.4,0c-2.3,0-4.1-1.8-4.1-4.1l0-7.4c0-2.3,1.8-4.1,4.1-4.1l7.4,0c2.3,0,4.1,1.8,4.1,4.1l0,7.4
	C561,678,559.2,679.9,556.9,679.9z"/>
<path fill="#DCDDDE" d="M536.6,680l-7.4,0c-2.3,0-4.1-1.8-4.1-4.1l0-7.4c0-2.3,1.8-4.1,4.1-4.1l7.4,0c2.3,0,4.1,1.8,4.1,4.1l0,7.4
	C540.7,678.1,538.9,680,536.6,680z"/>
<path fill="#EE4494" d="M72.2,641.1l-7.4,0c-2.3,0-4.1-1.8-4.1-4.1l0-7.4c0-2.3,1.8-4.1,4.1-4.1l7.4,0c2.3,0,4.1,1.8,4.1,4.1l0,7.4
	C76.3,639.2,74.5,641.1,72.2,641.1z"/>
<path fill="#DCDDDE" d="M52,641.2l-7.4,0c-2.3,0-4.1-1.8-4.1-4.1l0-7.4c0-2.3,1.8-4.1,4.1-4.1l7.4,0c2.3,0,4.1,1.8,4.1,4.1l0,7.4
	C56,639.3,54.2,641.2,52,641.2z"/>
<path fill="#EE4494" d="M72.3,661.3l-7.4,0c-2.3,0-4.1-1.8-4.1-4.1l0-7.4c0-2.3,1.8-4.1,4.1-4.1l7.4,0c2.3,0,4.1,1.8,4.1,4.1l0,7.4
	C76.4,659.4,74.6,661.3,72.3,661.3z"/>
<path fill="#EE4494" d="M52.1,661.4l-7.4,0c-2.3,0-4.1-1.8-4.1-4.1l0-7.4c0-2.3,1.8-4.1,4.1-4.1l7.4,0c2.3,0,4.1,1.8,4.1,4.1l0,7.4
	C56.2,659.5,54.3,661.4,52.1,661.4z"/>
<path fill="#DCDDDE" d="M72.5,681.9l-7.4,0c-2.3,0-4.1-1.8-4.1-4.1l0-7.4c0-2.3,1.8-4.1,4.1-4.1l7.4,0c2.3,0,4.1,1.8,4.1,4.1l0,7.4
	C76.5,680.1,74.7,681.9,72.5,681.9z"/>
<path fill="#DCDDDE" d="M52.2,682l-7.4,0c-2.3,0-4.1-1.8-4.1-4.1l0-7.4c0-2.3,1.8-4.1,4.1-4.1l7.4,0c2.3,0,4.1,1.8,4.1,4.1l0,7.4
	C56.3,680.2,54.4,682,52.2,682z"/>
<path fill="#DCDDDE" d="M126.2,640.9l-7.4,0c-2.3,0-4.1-1.8-4.1-4.1l0-7.4c0-2.3,1.8-4.1,4.1-4.1l7.4,0c2.3,0,4.1,1.8,4.1,4.1l0,7.4
	C130.3,639.1,128.5,640.9,126.2,640.9z"/>
<path fill="#EE4494" d="M106,641l-7.4,0c-2.3,0-4.1-1.8-4.1-4.1l0-7.4c0-2.3,1.8-4.1,4.1-4.1l7.4,0c2.3,0,4.1,1.8,4.1,4.1l0,7.4
	C110,639.2,108.2,641,106,641z"/>
<path fill="#DCDDDE" d="M126.4,661.1l-7.4,0c-2.3,0-4.1-1.8-4.1-4.1l0-7.4c0-2.3,1.8-4.1,4.1-4.1l7.4,0c2.3,0,4.1,1.8,4.1,4.1l0,7.4
	C130.4,659.3,128.6,661.1,126.4,661.1z"/>
<path fill="#DCDDDE" d="M106.1,661.2l-7.4,0c-2.3,0-4.1-1.8-4.1-4.1l0-7.4c0-2.3,1.8-4.1,4.1-4.1l7.4,0c2.3,0,4.1,1.8,4.1,4.1l0,7.4
	C110.2,659.4,108.3,661.2,106.1,661.2z"/>
<path fill="#DCDDDE" d="M126.5,681.8l-7.4,0c-2.3,0-4.1-1.8-4.1-4.1l0-7.4c0-2.3,1.8-4.1,4.1-4.1l7.4,0c2.3,0,4.1,1.8,4.1,4.1l0,7.4
	C130.5,679.9,128.7,681.7,126.5,681.8z"/>
<path fill="#DCDDDE" d="M106.2,681.9l-7.4,0c-2.3,0-4.1-1.8-4.1-4.1l0-7.4c0-2.3,1.8-4.1,4.1-4.1l7.4,0c2.3,0,4.1,1.8,4.1,4.1l0,7.4
	C110.3,680,108.4,681.9,106.2,681.9z"/>
<path fill="#DCDDDE" d="M180.2,640.7l-7.4,0c-2.3,0-4.1-1.8-4.1-4.1l0-7.4c0-2.3,1.8-4.1,4.1-4.1l7.4,0c2.3,0,4.1,1.8,4.1,4.1l0,7.4
	C184.3,638.9,182.5,640.7,180.2,640.7z"/>
<path fill="#EE4494" d="M160,640.9l-7.4,0c-2.3,0-4.1-1.8-4.1-4.1l0-7.4c0-2.3,1.8-4.1,4.1-4.1l7.4,0c2.3,0,4.1,1.8,4.1,4.1l0,7.4
	C164,639,162.2,640.8,160,640.9z"/>
<path fill="#DCDDDE" d="M180.4,661l-7.4,0c-2.3,0-4.1-1.8-4.1-4.1l0-7.4c0-2.3,1.8-4.1,4.1-4.1l7.4,0c2.3,0,4.1,1.8,4.1,4.1l0,7.4
	C184.4,659.1,182.6,660.9,180.4,661z"/>
<path fill="#EE4494" d="M160.1,661.1l-7.4,0c-2.3,0-4.1-1.8-4.1-4.1l0-7.4c0-2.3,1.8-4.1,4.1-4.1l7.4,0c2.3,0,4.1,1.8,4.1,4.1l0,7.4
	C164.2,659.2,162.3,661.1,160.1,661.1z"/>
<path fill="#DCDDDE" d="M180.5,681.6l-7.4,0c-2.3,0-4.1-1.8-4.1-4.1l0-7.4c0-2.3,1.8-4.1,4.1-4.1l7.4,0c2.3,0,4.1,1.8,4.1,4.1l0,7.4
	C184.6,679.7,182.7,681.6,180.5,681.6z"/>
<path fill="#DCDDDE" d="M160.2,681.7l-7.4,0c-2.3,0-4.1-1.8-4.1-4.1l0-7.4c0-2.3,1.8-4.1,4.1-4.1l7.4,0c2.3,0,4.1,1.8,4.1,4.1l0,7.4
	C164.3,679.8,162.4,681.7,160.2,681.7z"/>
<path fill="#EE4494" d="M234.2,640.6l-7.4,0c-2.3,0-4.1-1.8-4.1-4.1l0-7.4c0-2.3,1.8-4.1,4.1-4.1l7.4,0c2.3,0,4.1,1.8,4.1,4.1l0,7.4
	C238.3,638.7,236.5,640.6,234.2,640.6z"/>
<path fill="#EE4494" d="M214,640.7l-7.4,0c-2.3,0-4.1-1.8-4.1-4.1l0-7.4c0-2.3,1.8-4.1,4.1-4.1l7.4,0c2.3,0,4.1,1.8,4.1,4.1l0,7.4
	C218,638.8,216.2,640.7,214,640.7z"/>
<path fill="#DCDDDE" d="M234.4,660.8l-7.4,0c-2.3,0-4.1-1.8-4.1-4.1l0-7.4c0-2.3,1.8-4.1,4.1-4.1l7.4,0c2.3,0,4.1,1.8,4.1,4.1l0,7.4
	C238.4,658.9,236.6,660.8,234.4,660.8z"/>
<path fill="#DCDDDE" d="M214.1,660.9l-7.4,0c-2.3,0-4.1-1.8-4.1-4.1l0-7.4c0-2.3,1.8-4.1,4.1-4.1l7.4,0c2.3,0,4.1,1.8,4.1,4.1l0,7.4
	C218.2,659,216.3,660.9,214.1,660.9z"/>
<path fill="#DCDDDE" d="M234.5,681.4l-7.4,0c-2.3,0-4.1-1.8-4.1-4.1l0-7.4c0-2.3,1.8-4.1,4.1-4.1l7.4,0c2.3,0,4.1,1.8,4.1,4.1l0,7.4
	C238.6,679.6,236.7,681.4,234.5,681.4z"/>
<path fill="#DCDDDE" d="M214.2,681.5l-7.4,0c-2.3,0-4.1-1.8-4.1-4.1l0-7.4c0-2.3,1.8-4.1,4.1-4.1l7.4,0c2.3,0,4.1,1.8,4.1,4.1l0,7.4
	C218.3,679.7,216.5,681.5,214.2,681.5z"/>
<path fill="#EE4494" d="M288.2,640.4l-7.4,0c-2.3,0-4.1-1.8-4.1-4.1l0-7.4c0-2.3,1.8-4.1,4.1-4.1l7.4,0c2.3,0,4.1,1.8,4.1,4.1l0,7.4
	C292.3,638.6,290.5,640.4,288.2,640.4z"/>
<path fill="#EE4494" d="M268,640.5l-7.4,0c-2.3,0-4.1-1.8-4.1-4.1l0-7.4c0-2.3,1.8-4.1,4.1-4.1l7.4,0c2.3,0,4.1,1.8,4.1,4.1l0,7.4
	C272.1,638.7,270.2,640.5,268,640.5z"/>
<path fill="#EE4494" d="M288.4,660.6l-7.4,0c-2.3,0-4.1-1.8-4.1-4.1l0-7.4c0-2.3,1.8-4.1,4.1-4.1l7.4,0c2.3,0,4.1,1.8,4.1,4.1l0,7.4
	C292.4,658.8,290.6,660.6,288.4,660.6z"/>
<path fill="#DCDDDE" d="M268.1,660.7l-7.4,0c-2.3,0-4.1-1.8-4.1-4.1l0-7.4c0-2.3,1.8-4.1,4.1-4.1l7.4,0c2.3,0,4.1,1.8,4.1,4.1l0,7.4
	C272.2,658.9,270.3,660.7,268.1,660.7z"/>
<path fill="#DCDDDE" d="M288.5,681.3l-7.4,0c-2.3,0-4.1-1.8-4.1-4.1l0-7.4c0-2.3,1.8-4.1,4.1-4.1l7.4,0c2.3,0,4.1,1.8,4.1,4.1l0,7.4
	C292.6,679.4,290.7,681.3,288.5,681.3z"/>
<path fill="#DCDDDE" d="M268.2,681.4l-7.4,0c-2.3,0-4.1-1.8-4.1-4.1l0-7.4c0-2.3,1.8-4.1,4.1-4.1l7.4,0c2.3,0,4.1,1.8,4.1,4.1l0,7.4
	C272.3,679.5,270.5,681.4,268.2,681.4z"/>
<path fill="#DCDDDE" d="M342.3,640.3l-7.4,0c-2.3,0-4.1-1.8-4.1-4.1l0-7.4c0-2.3,1.8-4.1,4.1-4.1l7.4,0c2.3,0,4.1,1.8,4.1,4.1l0,7.4
	C346.3,638.4,344.5,640.3,342.3,640.3z"/>
<path fill="#EE4494" d="M322,640.4l-7.4,0c-2.3,0-4.1-1.8-4.1-4.1l0-7.4c0-2.3,1.8-4.1,4.1-4.1l7.4,0c2.3,0,4.1,1.8,4.1,4.1l0,7.4
	C326.1,638.5,324.2,640.4,322,640.4z"/>
<path fill="#EE4494" d="M342.4,660.5l-7.4,0c-2.3,0-4.1-1.8-4.1-4.1l0-7.4c0-2.3,1.8-4.1,4.1-4.1l7.4,0c2.3,0,4.1,1.8,4.1,4.1l0,7.4
	C346.4,658.6,344.6,660.5,342.4,660.5z"/>
<path fill="#DCDDDE" d="M322.1,660.6l-7.4,0c-2.3,0-4.1-1.8-4.1-4.1l0-7.4c0-2.3,1.8-4.1,4.1-4.1l7.4,0c2.3,0,4.1,1.8,4.1,4.1l0,7.4
	C326.2,658.7,324.3,660.6,322.1,660.6z"/>
<path fill="#DCDDDE" d="M342.5,681.1l-7.4,0c-2.3,0-4.1-1.8-4.1-4.1l0-7.4c0-2.3,1.8-4.1,4.1-4.1l7.4,0c2.3,0,4.1,1.8,4.1,4.1l0,7.4
	C346.6,679.3,344.7,681.1,342.5,681.1z"/>
<path fill="#DCDDDE" d="M322.2,681.2l-7.4,0c-2.3,0-4.1-1.8-4.1-4.1l0-7.4c0-2.3,1.8-4.1,4.1-4.1l7.4,0c2.3,0,4.1,1.8,4.1,4.1l0,7.4
	C326.3,679.4,324.5,681.2,322.2,681.2z"/>
<path fill="#EE4494" d="M396.3,640.1l-7.4,0c-2.3,0-4.1-1.8-4.1-4.1l0-7.4c0-2.3,1.8-4.1,4.1-4.1l7.4,0c2.3,0,4.1,1.8,4.1,4.1l0,7.4
	C400.3,638.2,398.5,640.1,396.3,640.1z"/>
<path fill="#EE4494" d="M376,640.2l-7.4,0c-2.3,0-4.1-1.8-4.1-4.1l0-7.4c0-2.3,1.8-4.1,4.1-4.1l7.4,0c2.3,0,4.1,1.8,4.1,4.1l0,7.4
	C380.1,638.4,378.2,640.2,376,640.2z"/>
<path fill="#DCDDDE" d="M396.4,660.3l-7.4,0c-2.3,0-4.1-1.8-4.1-4.1l0-7.4c0-2.3,1.8-4.1,4.1-4.1l7.4,0c2.3,0,4.1,1.8,4.1,4.1l0,7.4
	C400.4,658.5,398.6,660.3,396.4,660.3z"/>
<path fill="#EE4494" d="M376.1,660.4l-7.4,0c-2.3,0-4.1-1.8-4.1-4.1l0-7.4c0-2.3,1.8-4.1,4.1-4.1l7.4,0c2.3,0,4.1,1.8,4.1,4.1l0,7.4
	C380.2,658.6,378.3,660.4,376.1,660.4z"/>
<path fill="#DCDDDE" d="M396.5,680.9l-7.4,0c-2.3,0-4.1-1.8-4.1-4.1l0-7.4c0-2.3,1.8-4.1,4.1-4.1l7.4,0c2.3,0,4.1,1.8,4.1,4.1l0,7.4
	C400.6,679.1,398.7,680.9,396.5,680.9z"/>
<path fill="#DCDDDE" d="M376.2,681.1l-7.4,0c-2.3,0-4.1-1.8-4.1-4.1l0-7.4c0-2.3,1.8-4.1,4.1-4.1l7.4,0c2.3,0,4.1,1.8,4.1,4.1l0,7.4
	C380.3,679.2,378.5,681,376.2,681.1z"/>
<path fill="#EE4494" d="M450.3,639.9l-7.4,0c-2.3,0-4.1-1.8-4.1-4.1l0-7.4c0-2.3,1.8-4.1,4.1-4.1l7.4,0c2.3,0,4.1,1.8,4.1,4.1l0,7.4
	C454.3,638.1,452.5,639.9,450.3,639.9z"/>
<path fill="#EE4494" d="M430,640.1l-7.4,0c-2.3,0-4.1-1.8-4.1-4.1l0-7.4c0-2.3,1.8-4.1,4.1-4.1l7.4,0c2.3,0,4.1,1.8,4.1,4.1l0,7.4
	C434.1,638.2,432.2,640,430,640.1z"/>
<path fill="#EE4494" d="M450.4,660.1l-7.4,0c-2.3,0-4.1-1.8-4.1-4.1l0-7.4c0-2.3,1.8-4.1,4.1-4.1l7.4,0c2.3,0,4.1,1.8,4.1,4.1l0,7.4
	C454.4,658.3,452.6,660.1,450.4,660.1z"/>
<path fill="#EE4494" d="M430.1,660.3l-7.4,0c-2.3,0-4.1-1.8-4.1-4.1l0-7.4c0-2.3,1.8-4.1,4.1-4.1l7.4,0c2.3,0,4.1,1.8,4.1,4.1l0,7.4
	C434.2,658.4,432.3,660.2,430.1,660.3z"/>
<path fill="#DCDDDE" d="M450.5,680.8l-7.4,0c-2.3,0-4.1-1.8-4.1-4.1l0-7.4c0-2.3,1.8-4.1,4.1-4.1l7.4,0c2.3,0,4.1,1.8,4.1,4.1l0,7.4
	C454.6,678.9,452.7,680.8,450.5,680.8z"/>
<path fill="#DCDDDE" d="M430.2,680.9l-7.4,0c-2.3,0-4.1-1.8-4.1-4.1l0-7.4c0-2.3,1.8-4.1,4.1-4.1l7.4,0c2.3,0,4.1,1.8,4.1,4.1l0,7.4
	C434.3,679,432.5,680.9,430.2,680.9z"/>
<path fill="#DCDDDE" d="M394.8,508.4l-7.4,0c-2.3,0-4.1-1.8-4.1-4.1l0-7.4c0-2.3,1.8-4.1,4.1-4.1l7.4,0c2.3,0,4.1,1.8,4.1,4.1l0,7.4
	C398.9,506.5,397.1,508.4,394.8,508.4z"/>
<path fill="#DCDDDE" d="M374.5,508.5l-7.4,0c-2.3,0-4.1-1.8-4.1-4.1l0-7.4c0-2.3,1.8-4.1,4.1-4.1l7.4,0c2.3,0,4.1,1.8,4.1,4.1l0,7.4
	C378.6,506.7,376.8,508.5,374.5,508.5z"/>
<path fill="#FCB320" d="M394.9,528.6l-7.4,0c-2.3,0-4.1-1.8-4.1-4.1l0-7.4c0-2.3,1.8-4.1,4.1-4.1l7.4,0c2.3,0,4.1,1.8,4.1,4.1l0,7.4
	C399,526.7,397.2,528.6,394.9,528.6z"/>
<path fill="#FCB320" d="M374.6,528.7l-7.4,0c-2.3,0-4.1-1.8-4.1-4.1l0-7.4c0-2.3,1.8-4.1,4.1-4.1l7.4,0c2.3,0,4.1,1.8,4.1,4.1l0,7.4
	C378.7,526.9,376.9,528.7,374.6,528.7z"/>
<path fill="#FCB320" d="M395,549.2l-7.4,0c-2.3,0-4.1-1.8-4.1-4.1l0-7.4c0-2.3,1.8-4.1,4.1-4.1l7.4,0c2.3,0,4.1,1.8,4.1,4.1l0,7.4
	C399.1,547.4,397.3,549.2,395,549.2z"/>
<path fill="#FCB320" d="M374.7,549.3l-7.4,0c-2.3,0-4.1-1.8-4.1-4.1l0-7.4c0-2.3,1.8-4.1,4.1-4.1l7.4,0c2.3,0,4.1,1.8,4.1,4.1l0,7.4
	C378.8,547.5,377,549.3,374.7,549.3z"/>
<path d="M57,694c-5.9,0-9.8,4.6-9.8,11.7s3.8,11.6,9.8,11.6s9.8-4.6,9.8-11.6S63,694,57,694z M51.4,705.6c0-4.8,2.1-7.7,5.6-7.7
	s5.6,2.9,5.6,7.7c0,4.8-2.1,7.7-5.6,7.7S51.4,710.5,51.4,705.6z"/>
<polygon points="119.4,694.4 117.2,694.4 116.8,694.5 116.6,694.6 109.8,697.1 109.8,701.1 115.3,699.2 115.3,713.1 109.5,713.1 
	109.5,716.8 124.8,716.8 124.8,713.1 119.4,713.1 "/>
<path d="M173,709.4c3.1-3.2,5-5.3,5-8.3c0-4.2-3.2-7.1-7.8-7.1c-4.5,0-7.6,2.8-7.8,6.9l-0.1,1.1h4l0.1-0.9c0.2-2,1.7-3.2,3.8-3.2
	c2.2,0,3.6,1.3,3.6,3.2c0,1.8-1.4,3.3-4,6l-6.8,7.3v2.5h15.4v-3.8h-8.9L173,709.4z"/>
<path d="M229,705.4c1.2-1.1,1.9-2.7,1.9-4.6c0-4.1-3-6.8-7.5-6.8c-4.1,0-7.1,2.5-7.5,6.2l-0.1,1.1h4.1l0.1-0.9
	c0.2-1.6,1.5-2.6,3.4-2.6c2.2,0,3.4,1.1,3.4,3c0,1.8-1.2,2.9-3.2,2.9H221v3.7h2.7c1.9,0,3.8,0.8,3.8,3c0,1.8-1.5,3-3.9,3
	c-2.3,0-3.9-1-4.1-2.7l-0.1-0.8h-4l0.1,1.1c0.5,3.9,3.6,6.2,8.2,6.2c4.7,0,7.9-2.8,7.9-6.8C231.5,708.3,230.6,706.5,229,705.4z"/>
<polygon points="282.4,701.9 278.4,701.9 278.4,708.5 272.4,708.5 278.3,694.4 274,694.4 267.4,709.8 267.4,712.3 278.4,712.3 
	278.4,716.8 282.4,716.8 282.4,712.3 285.7,712.3 285.7,708.5 282.4,708.5 "/>
<path d="M330.3,702.3h-3.1v-4h10v-3.9h-14l0,11.7l6.9,0c2.6,0,4.2,1.3,4.2,3.4c0,2.3-1.8,3.9-4.2,3.9c-2.5,0-4-1.1-4.5-3.3l-0.2-0.8
	h-4.1l0.2,1.2c0.7,4.2,3.9,6.7,8.6,6.7c4.8,0,8.2-3.3,8.2-7.8C338.2,705.3,334.9,702.3,330.3,702.3z"/>
<path d="M383.1,701.2l4.8-6.8h-5l-6.2,8.7l-0.1,0l-0.6,0.9c-0.1,0.1-0.2,0.2-0.2,0.4l-0.3,0.4l0,0c-0.7,1.2-1.3,2.7-1.3,4.4
	c0,4.7,3.6,8,8.5,8s8.5-3.4,8.5-8.1C391.4,704.6,387.9,701.3,383.1,701.2z M382.9,713.5c-2.6,0-4.5-1.8-4.5-4.2
	c0-0.9,0.2-1.6,0.7-2.4l0.6-0.8c0.8-0.7,1.9-1.1,3.2-1.1c2.6,0,4.4,1.7,4.4,4.2C387.3,711.8,385.5,713.5,382.9,713.5z"/>
<polygon points="428,698.4 438.6,698.4 429.5,716.8 434.1,716.8 444,697 444,694.4 428,694.4 "/>
<path d="M494.9,705c1.3-1.1,2.1-2.6,2.1-4.4c0-3.8-3.3-6.5-7.8-6.5c-4.5,0-7.8,2.8-7.8,6.5c0,1.8,0.7,3.3,2,4.4
	c-1.9,1.2-2.9,3-2.9,5.3c0,4.2,3.5,7.1,8.6,7.1c5.2,0,8.6-2.8,8.6-7.1C497.8,708,496.7,706.2,494.9,705z M489.2,703.5
	c-2.2,0-3.7-1.1-3.7-2.8c0-1.7,1.5-3,3.7-3c2.1,0,3.7,1.3,3.7,3C492.8,702.4,491.4,703.5,489.2,703.5z M489.2,706.9
	c2.6,0,4.3,1.3,4.3,3.2c0,2-1.8,3.4-4.3,3.4c-2.6,0-4.3-1.4-4.3-3.4C484.8,708.2,486.6,706.9,489.2,706.9z"/>
<path d="M550.8,702c0-4.7-3.6-8-8.5-8s-8.5,3.4-8.5,8.1c0,4.5,3.5,7.8,8.3,8l-4.8,6.8h5l6.2-8.7l0.1,0l0.6-0.9
	c0.1-0.1,0.2-0.3,0.2-0.4l0.3-0.4l0,0C550.2,705.3,550.8,703.8,550.8,702z M546.1,704.4l-0.6,0.8c-0.8,0.7-1.9,1.1-3.2,1.1
	c-2.6,0-4.4-1.7-4.4-4.2c0-2.5,1.8-4.3,4.4-4.3c2.6,0,4.5,1.8,4.5,4.2C546.8,702.9,546.5,703.6,546.1,704.4z"/>
<path d="M391.4,575.5v-4.1h-4l0.8-6.8l-4.1-0.5l-0.9,7.3h-5.6l0.8-6.8l-4.1-0.5l-0.9,7.3h-4.6v4.1h4.1l-0.5,5.4h-4.7v4.1h4.1
	l-0.8,6.3l4.2,0.5l0.8-6.7h5.7l-0.8,6.2l4.1,0.5l0.8-6.7h4.5v-4.1h-4l0.5-5.4H391.4z M382.7,575.5l-0.5,5.4h-5.6l0.5-5.4H382.7z"/>
<text transform="matrix(1 0 0 1 40.6277 588.8564)" stroke="#000000" stroke-miterlimit="10" font-family="'Campton-LightDEMO'" font-size="30">switch to numbers</text>
<path fill="#DCDDDE" d="M503.2,507.7l-7.4,0c-2.3,0-4.1-1.8-4.1-4.1l0-7.4c0-2.3,1.8-4.1,4.1-4.1l7.4,0c2.3,0,4.1,1.8,4.1,4.1l0,7.4
	C507.3,505.9,505.5,507.7,503.2,507.7z"/>
<path fill="#DCDDDE" d="M483,507.8l-7.4,0c-2.3,0-4.1-1.8-4.1-4.1l0-7.4c0-2.3,1.8-4.1,4.1-4.1l7.4,0c2.3,0,4.1,1.8,4.1,4.1l0,7.4
	C487,506,485.2,507.8,483,507.8z"/>
<path fill="#DCDDDE" d="M503.3,527.9l-7.4,0c-2.3,0-4.1-1.8-4.1-4.1l0-7.4c0-2.3,1.8-4.1,4.1-4.1l7.4,0c2.3,0,4.1,1.8,4.1,4.1l0,7.4
	C507.4,526.1,505.6,527.9,503.3,527.9z"/>
<path fill="#FCB320" d="M483.1,528l-7.4,0c-2.3,0-4.1-1.8-4.1-4.1l0-7.4c0-2.3,1.8-4.1,4.1-4.1l7.4,0c2.3,0,4.1,1.8,4.1,4.1l0,7.4
	C487.2,526.2,485.3,528,483.1,528z"/>
<path fill="#DCDDDE" d="M503.5,548.6l-7.4,0c-2.3,0-4.1-1.8-4.1-4.1l0-7.4c0-2.3,1.8-4.1,4.1-4.1l7.4,0c2.3,0,4.1,1.8,4.1,4.1l0,7.4
	C507.5,546.7,505.7,548.6,503.5,548.6z"/>
<path fill="#DCDDDE" d="M483.2,548.7l-7.4,0c-2.3,0-4.1-1.8-4.1-4.1l0-7.4c0-2.3,1.8-4.1,4.1-4.1l7.4,0c2.3,0,4.1,1.8,4.1,4.1l0,7.4
	C487.3,546.8,485.4,548.7,483.2,548.7z"/>
<path fill="#DCDDDE" d="M557.2,507.6l-7.4,0c-2.3,0-4.1-1.8-4.1-4.1l0-7.4c0-2.3,1.8-4.1,4.1-4.1l7.4,0c2.3,0,4.1,1.8,4.1,4.1l0,7.4
	C561.3,505.7,559.5,507.6,557.2,507.6z"/>
<path fill="#DCDDDE" d="M537,507.7l-7.4,0c-2.3,0-4.1-1.8-4.1-4.1l0-7.4c0-2.3,1.8-4.1,4.1-4.1l7.4,0c2.3,0,4.1,1.8,4.1,4.1l0,7.4
	C541,505.8,539.2,507.7,537,507.7z"/>
<path fill="#FCB320" d="M557.3,527.8l-7.4,0c-2.3,0-4.1-1.8-4.1-4.1l0-7.4c0-2.3,1.8-4.1,4.1-4.1l7.4,0c2.3,0,4.1,1.8,4.1,4.1l0,7.4
	C561.4,525.9,559.6,527.8,557.3,527.8z"/>
<path fill="#FCB320" d="M537.1,527.9l-7.4,0c-2.3,0-4.1-1.8-4.1-4.1l0-7.4c0-2.3,1.8-4.1,4.1-4.1l7.4,0c2.3,0,4.1,1.8,4.1,4.1l0,7.4
	C541.2,526,539.3,527.9,537.1,527.9z"/>
<path fill="#DCDDDE" d="M557.5,548.4l-7.4,0c-2.3,0-4.1-1.8-4.1-4.1l0-7.4c0-2.3,1.8-4.1,4.1-4.1l7.4,0c2.3,0,4.1,1.8,4.1,4.1l0,7.4
	C561.5,546.6,559.7,548.4,557.5,548.4z"/>
<path fill="#FCB320" d="M537.2,548.5l-7.4,0c-2.3,0-4.1-1.8-4.1-4.1l0-7.4c0-2.3,1.8-4.1,4.1-4.1l7.4,0c2.3,0,4.1,1.8,4.1,4.1l0,7.4
	C541.3,546.7,539.4,548.5,537.2,548.5z"/>
<path fill="#DCDDDE" d="M450.8,507.9l-7.4,0c-2.3,0-4.1-1.8-4.1-4.1l0-7.4c0-2.3,1.8-4.1,4.1-4.1l7.4,0c2.3,0,4.1,1.8,4.1,4.1l0,7.4
	C454.9,506.1,453.1,507.9,450.8,507.9z"/>
<path fill="#DCDDDE" d="M430.5,508l-7.4,0c-2.3,0-4.1-1.8-4.1-4.1l0-7.4c0-2.3,1.8-4.1,4.1-4.1l7.4,0c2.3,0,4.1,1.8,4.1,4.1l0,7.4
	C434.6,506.2,432.8,508,430.5,508z"/>
<path fill="#FCB320" d="M450.9,528.1l-7.4,0c-2.3,0-4.1-1.8-4.1-4.1l0-7.4c0-2.3,1.8-4.1,4.1-4.1l7.4,0c2.3,0,4.1,1.8,4.1,4.1l0,7.4
	C455,526.3,453.2,528.1,450.9,528.1z"/>
<path fill="#FCB320" d="M430.6,528.2l-7.4,0c-2.3,0-4.1-1.8-4.1-4.1l0-7.4c0-2.3,1.8-4.1,4.1-4.1l7.4,0c2.3,0,4.1,1.8,4.1,4.1l0,7.4
	C434.7,526.4,432.9,528.2,430.6,528.2z"/>
<path fill="#FCB320" d="M451,548.8l-7.4,0c-2.3,0-4.1-1.8-4.1-4.1l0-7.4c0-2.3,1.8-4.1,4.1-4.1l7.4,0c2.3,0,4.1,1.8,4.1,4.1l0,7.4
	C455.1,546.9,453.3,548.7,451,548.8z"/>
<path fill="#DCDDDE" d="M430.7,548.9l-7.4,0c-2.3,0-4.1-1.8-4.1-4.1l0-7.4c0-2.3,1.8-4.1,4.1-4.1l7.4,0c2.3,0,4.1,1.8,4.1,4.1l0,7.4
	C434.8,547,433,548.9,430.7,548.9z"/>
<g>
	<g>
		<path d="M434.7,588.9c0-0.8,0.6-1.4,1.4-1.4c0.8,0,1.4,0.6,1.4,1.4c0,0.8-0.6,1.4-1.4,1.4C435.3,590.2,434.7,589.6,434.7,588.9z"
			/>
		<path d="M436.1,591.7c-1.6,0-2.9-1.3-2.9-2.9s1.3-2.9,2.9-2.9s2.9,1.3,2.9,2.9S437.7,591.7,436.1,591.7z M436.1,589v1.3V589
			c0,0,0.1-0.1,0.1-0.1c0-0.1-0.1-0.1-0.1-0.1l0,0c0,0,0,0,0,0l0,0l0,0c0,0-0.1,0.1-0.1,0.1S436.1,589,436.1,589z"/>
	</g>
</g>
<g>
	<path d="M491,583.7c-0.8,0-1.4,0.6-1.4,1.4c0,0.5,0.3,1,0.9,1.1l-1.5,4h1.3l1.6-3.8c0.4-0.9,0.4-1.1,0.4-1.4
		C492.4,584.3,491.8,583.7,491,583.7z"/>
	<path d="M491.4,591.7h-4.5l1.8-4.9c-0.4-0.5-0.6-1-0.6-1.7c0-1.6,1.3-2.9,2.9-2.9c1.6,0,2.9,1.3,2.9,2.9c0,0.6-0.1,1-0.6,2
		L491.4,591.7z"/>
</g>
<g>
	<polygon points="547.2,582.8 547.3,568.1 542.2,568.1 542.3,582.8 	"/>
	<path d="M544.8,586c-1.6,0-2.9,1.3-2.9,2.9c0,1.6,1.3,2.9,2.9,2.9s2.9-1.3,2.9-2.9C547.7,587.3,546.4,586,544.8,586z"/>
</g>
<g>
	<g>
		<path fill="#333332" d="M476.3,794.5h3.7v1.1c1.1-1.2,3-1.5,3.8-1.5c1,0,2.4,0.3,3.9,1.6l-1.7,3.4c-0.7-1.1-2.3-1.4-2.9-1.4
			c-2,0-3.1,1.5-3.1,4.6v8.4h-3.7V794.5z"/>
		<path fill="#333332" d="M507.1,789.9c0-0.7,0.2-1.2,0.7-1.7c0.5-0.5,1-0.7,1.7-0.7c0.7,0,1.3,0.2,1.7,0.7c0.5,0.5,0.7,1,0.7,1.7
			s-0.2,1.3-0.7,1.7c-0.5,0.5-1,0.7-1.7,0.7s-1.3-0.2-1.7-0.7C507.4,791.2,507.1,790.6,507.1,789.9z M511.4,794.5v16.2h-3.7v-16.2
			H511.4z"/>
		<path fill="#333332" d="M528,789.9c0-0.7,0.2-1.2,0.7-1.7c0.5-0.5,1-0.7,1.7-0.7c0.7,0,1.3,0.2,1.7,0.7c0.5,0.5,0.7,1,0.7,1.7
			s-0.2,1.3-0.7,1.7c-0.5,0.5-1,0.7-1.7,0.7c-0.7,0-1.3-0.2-1.7-0.7C528.3,791.2,528,790.6,528,789.9z M532.3,794.5v16.2h-3.7v-16.2
			H532.3z"/>
		<path fill="#333332" d="M518.1,786.1v24.7h-3.7v-24.7H518.1z"/>
		<path fill="#333332" d="M525,786.1v24.7h-3.7v-24.7H525z"/>
		<path fill="#333332" d="M500.7,794.3v1.8c-1-1-3.1-1.6-4.9-1.6c-4.4,0-8,3.5-8,7.9s3.6,7.9,8,7.9c1.8,0,3.9-0.6,4.9-1.6v2.6h4v-17
			H500.7z M495.9,806.5c-2.3,0-4.2-1.9-4.2-4.2c0-2.3,1.9-4.2,4.2-4.2c2.3,0,4.2,1.9,4.2,4.2C500,804.6,498.2,806.5,495.9,806.5z"/>
		<path fill="#333332" d="M466,793.7c-2,0-3.3,0.7-5.3,1.8v-8.2h-3v24h3v-2.8c2,1.1,3.3,1.8,5.3,1.8c4.6,0,8.3-3.7,8.3-8.3
			S470.6,793.7,466,793.7z M466,806.3c-2.4,0-4.4-2-4.4-4.4c0-2.4,2-4.4,4.4-4.4c2.4,0,4.4,2,4.4,4.4
			C470.4,804.4,468.4,806.3,466,806.3z"/>
		<path fill="#333332" d="M539,801.1c0-1.9,1.7-3.1,3.8-3.1c1.6,0,3.1,1.2,3.1,3.6s0,9.7,0,9.7h4.8v-10.7c0-3.7-3.5-6.7-7.2-6.7
			c-1.3,0-2.8,0.4-4.8,1.1v0.3h-3v16h3.2C538.9,811.3,539,803,539,801.1z"/>
		<path fill="#333332" d="M551.6,812.3c0.5,4,4.2,6.7,8.3,6.7c5.6,0,8.8-3.2,8.8-6.9c0-1.8,0-16.8,0-16.8h-3v0.8c-2-1-4-1.6-5.8-1.6
			c-4.4,0-8.4,3.5-8.4,7.9c0,4.4,4.3,7.9,8.7,7.9c1.8,0,3.6-0.6,5.6-1.6v2.7c-1,3.1-3,4.3-5.3,4.3c-2,0-4-1.4-4.5-3.3L551.6,812.3z
			 M559.8,806.4c-2.2,0-4-1.8-4-4c0-2.2,1.8-4,4-4s4,1.8,4,4C563.9,804.6,562.1,806.4,559.8,806.4z"/>
	</g>
	<path fill="#07B4C8" d="M469.6,760.8L469.6,760.8c-2,0-3.6-1.6-3.6-3.6l0,0c0-2,1.6-3.6,3.6-3.6l0,0c2,0,3.6,1.6,3.6,3.6l0,0
		C473.2,759.2,471.6,760.8,469.6,760.8z"/>
	<path fill="#07B4C8" d="M460.4,760.8L460.4,760.8c-2,0-3.6-1.6-3.6-3.6l0,0c0-2,1.6-3.6,3.6-3.6l0,0c2,0,3.6,1.6,3.6,3.6l0,0
		C463.9,759.2,462.3,760.8,460.4,760.8z"/>
	<path fill="#07B4C8" d="M469.6,770L469.6,770c-2,0-3.6-1.6-3.6-3.6l0,0c0-2,1.6-3.6,3.6-3.6l0,0c2,0,3.6,1.6,3.6,3.6l0,0
		C473.2,768.4,471.6,770,469.6,770z"/>
	<path fill="#07B4C8" d="M460.4,770L460.4,770c-2,0-3.6-1.6-3.6-3.6l0,0c0-2,1.6-3.6,3.6-3.6l0,0c2,0,3.6,1.6,3.6,3.6l0,0
		C463.9,768.4,462.3,770,460.4,770z"/>
	<path fill="#FCB320" d="M485.6,760.8L485.6,760.8c-2,0-3.6-1.6-3.6-3.6l0,0c0-2,1.6-3.6,3.6-3.6l0,0c2,0,3.6,1.6,3.6,3.6l0,0
		C489.2,759.2,487.6,760.8,485.6,760.8z"/>
	<path fill="#FCB320" d="M494.9,770L494.9,770c-2,0-3.6-1.6-3.6-3.6l0,0c0-2,1.6-3.6,3.6-3.6h0c2,0,3.6,1.6,3.6,3.6l0,0
		C498.4,768.4,496.8,770,494.9,770z"/>
	<path fill="#EE4494" d="M520.9,760.8L520.9,760.8c-2,0-3.6-1.6-3.6-3.6l0,0c0-2,1.6-3.6,3.6-3.6h0c2,0,3.6,1.6,3.6,3.6l0,0
		C524.5,759.2,522.9,760.8,520.9,760.8z"/>
	<path fill="#EE4494" d="M520.9,770L520.9,770c-2,0-3.6-1.6-3.6-3.6l0,0c0-2,1.6-3.6,3.6-3.6h0c2,0,3.6,1.6,3.6,3.6l0,0
		C524.5,768.4,522.9,770,520.9,770z"/>
	<path fill="#EE4494" d="M511.7,770L511.7,770c-2,0-3.6-1.6-3.6-3.6l0,0c0-2,1.6-3.6,3.6-3.6h0c2,0,3.6,1.6,3.6,3.6l0,0
		C515.2,768.4,513.6,770,511.7,770z"/>
	<path fill="#EE4494" d="M511.7,779.3L511.7,779.3c-2,0-3.6-1.6-3.6-3.6l0,0c0-2,1.6-3.6,3.6-3.6h0c2,0,3.6,1.6,3.6,3.6l0,0
		C515.2,777.7,513.6,779.3,511.7,779.3z"/>
</g>
<text transform="matrix(1 0 0 1 119.3166 80.3089)" fill="#333332" stroke="#333332" stroke-width="2" stroke-miterlimit="10" font-family="'Campton-LightDEMO'" font-size="40">Lets get Brailling</text>
</svg>
